<?xml version="1.0" encoding="UTF-8" standalone="no"?>
<!DOCTYPE svg PUBLIC "-//W3C//DTD SVG 1.1//EN"
 "http://www.w3.org/Graphics/SVG/1.1/DTD/svg11.dtd">
<!-- Generated by graphviz version 2.42.4 (0)
 -->
<!-- Title: G Pages: 1 -->
<svg width="716pt" height="653pt"
 viewBox="0.00 0.00 715.70 653.20" xmlns="http://www.w3.org/2000/svg" xmlns:xlink="http://www.w3.org/1999/xlink">
<g id="graph0" class="graph" transform="scale(1 1) rotate(0) translate(21.6 631.6)">
<title>G</title>
<polygon fill="white" stroke="transparent" points="-21.6,21.6 -21.6,-631.6 694.1,-631.6 694.1,21.6 -21.6,21.6"/>
<g id="clust1" class="cluster">
<title>cluster_clients</title>
<path fill="white" stroke="#cbd5e1" d="M122.5,-527C122.5,-527 503.5,-527 503.5,-527 509.5,-527 515.5,-533 515.5,-539 515.5,-539 515.5,-590 515.5,-590 515.5,-596 509.5,-602 503.5,-602 503.5,-602 122.5,-602 122.5,-602 116.5,-602 110.5,-596 110.5,-590 110.5,-590 110.5,-539 110.5,-539 110.5,-533 116.5,-527 122.5,-527"/>
<text text-anchor="middle" x="313" y="-586.8" font-family="Arial" font-size="14.00">Couches client</text>
</g>
<!-- web -->
<g id="node1" class="node">
<title>web</title>
<path fill="#f8fafc" stroke="#cbd5e1" d="M185,-571C185,-571 130,-571 130,-571 124,-571 118,-565 118,-559 118,-559 118,-547 118,-547 118,-541 124,-535 130,-535 130,-535 185,-535 185,-535 191,-535 197,-541 197,-547 197,-547 197,-559 197,-559 197,-565 191,-571 185,-571"/>
<text text-anchor="middle" x="157.5" y="-556.2" font-family="Arial" font-size="11.00">Web app</text>
<text text-anchor="middle" x="157.5" y="-544.2" font-family="Arial" font-size="11.00">React + Vite</text>
</g>
<!-- ui -->
<g id="node4" class="node">
<title>ui</title>
<path fill="#eef2ff" stroke="#a5b4fc" d="M333,-484C333,-484 226,-484 226,-484 220,-484 214,-478 214,-472 214,-472 214,-448 214,-448 214,-442 220,-436 226,-436 226,-436 333,-436 333,-436 339,-436 345,-442 345,-448 345,-448 345,-472 345,-472 345,-478 339,-484 333,-484"/>
<text text-anchor="middle" x="279.5" y="-469.2" font-family="Arial" font-size="11.00">desktop&#45;client</text>
<text text-anchor="middle" x="279.5" y="-457.2" font-family="Arial" font-size="11.00">Composants UI, hooks,</text>
<text text-anchor="middle" x="279.5" y="-445.2" font-family="Arial" font-size="11.00">modales, navigation</text>
</g>
<!-- web&#45;&gt;ui -->
<g id="edge1" class="edge">
<title>web&#45;&gt;ui</title>
<path fill="none" stroke="#64748b" d="M180.45,-534.88C197.69,-522.02 221.68,-504.13 241.73,-489.17"/>
<polygon fill="#64748b" stroke="#64748b" points="243.63,-491.25 248.37,-484.22 240.28,-486.76 243.63,-491.25"/>
</g>
<!-- electron -->
<g id="node2" class="node">
<title>electron</title>
<path fill="#f8fafc" stroke="#cbd5e1" d="M318,-571C318,-571 241,-571 241,-571 235,-571 229,-565 229,-559 229,-559 229,-547 229,-547 229,-541 235,-535 241,-535 241,-535 318,-535 318,-535 324,-535 330,-541 330,-547 330,-547 330,-559 330,-559 330,-565 324,-571 318,-571"/>
<text text-anchor="middle" x="279.5" y="-556.2" font-family="Arial" font-size="11.00">Desktop app</text>
<text text-anchor="middle" x="279.5" y="-544.2" font-family="Arial" font-size="11.00">Electron wrapper</text>
</g>
<!-- electron&#45;&gt;ui -->
<g id="edge2" class="edge">
<title>electron&#45;&gt;ui</title>
<path fill="none" stroke="#64748b" d="M279.5,-534.88C279.5,-522.92 279.5,-506.59 279.5,-492.33"/>
<polygon fill="#64748b" stroke="#64748b" points="282.3,-492.22 279.5,-484.22 276.7,-492.22 282.3,-492.22"/>
</g>
<!-- mobile -->
<g id="node3" class="node">
<title>mobile</title>
<path fill="#f8fafc" stroke="#cbd5e1" d="M495,-571C495,-571 374,-571 374,-571 368,-571 362,-565 362,-559 362,-559 362,-547 362,-547 362,-541 368,-535 374,-535 374,-535 495,-535 495,-535 501,-535 507,-541 507,-547 507,-547 507,-559 507,-559 507,-565 501,-571 495,-571"/>
<text text-anchor="middle" x="434.5" y="-556.2" font-family="Arial" font-size="11.00">Mobile/Web responsive UI</text>
<text text-anchor="middle" x="434.5" y="-544.2" font-family="Arial" font-size="11.00">même code UI</text>
</g>
<!-- mobile&#45;&gt;ui -->
<g id="edge3" class="edge">
<title>mobile&#45;&gt;ui</title>
<path fill="none" stroke="#64748b" d="M405.35,-534.88C382.98,-521.75 351.67,-503.37 325.88,-488.23"/>
<polygon fill="#64748b" stroke="#64748b" points="327.08,-485.69 318.76,-484.05 324.25,-490.52 327.08,-485.69"/>
</g>
<!-- comp -->
<g id="node5" class="node">
<title>comp</title>
<path fill="#eef2ff" stroke="#a5b4fc" d="M131,-369C131,-369 12,-369 12,-369 6,-369 0,-363 0,-357 0,-357 0,-345 0,-345 0,-339 6,-333 12,-333 12,-333 131,-333 131,-333 137,-333 143,-339 143,-345 143,-345 143,-357 143,-357 143,-363 137,-369 131,-369"/>
<text text-anchor="middle" x="71.5" y="-354.2" font-family="Arial" font-size="11.00">component&#45;library</text>
<text text-anchor="middle" x="71.5" y="-342.2" font-family="Arial" font-size="11.00">Design system réutilisable</text>
</g>
<!-- ui&#45;&gt;comp -->
<g id="edge4" class="edge">
<title>ui&#45;&gt;comp</title>
<path fill="none" stroke="#64748b" d="M234.62,-435.91C198.16,-417.16 147.19,-390.94 111.97,-372.82"/>
<polygon fill="#64748b" stroke="#64748b" points="113.1,-370.25 104.7,-369.08 110.54,-375.23 113.1,-370.25"/>
<text text-anchor="middle" x="194.5" y="-403" font-family="Arial" font-size="10.00">utilise</text>
</g>
<!-- worker -->
<g id="node7" class="node">
<title>worker</title>
<path fill="#fefce8" stroke="#fde68a" d="M372,-375C372,-375 187,-375 187,-375 181,-375 175,-369 175,-363 175,-363 175,-339 175,-339 175,-333 181,-327 187,-327 187,-327 372,-327 372,-327 378,-327 384,-333 384,-339 384,-339 384,-363 384,-363 384,-369 378,-375 372,-375"/>
<text text-anchor="middle" x="279.5" y="-360.2" font-family="Arial" font-size="11.00">Runtime local de données</text>
<text text-anchor="middle" x="279.5" y="-348.2" font-family="Arial" font-size="11.00">Web worker (web)</text>
<text text-anchor="middle" x="279.5" y="-336.2" font-family="Arial" font-size="11.00">ou process Node/WebSocket (Electron)</text>
</g>
<!-- ui&#45;&gt;worker -->
<g id="edge5" class="edge">
<title>ui&#45;&gt;worker</title>
<path fill="none" stroke="#64748b" d="M279.5,-435.78C279.5,-420.5 279.5,-400.3 279.5,-383.56"/>
<polygon fill="#64748b" stroke="#64748b" points="282.3,-383.17 279.5,-375.17 276.7,-383.17 282.3,-383.17"/>
<text text-anchor="middle" x="316.5" y="-403" font-family="Arial" font-size="10.00">appels / bindings</text>
</g>
<!-- sync -->
<g id="node9" class="node">
<title>sync</title>
<path fill="#fdf2f8" stroke="#f9a8d4" d="M573,-375C573,-375 428,-375 428,-375 422,-375 416,-369 416,-363 416,-363 416,-339 416,-339 416,-333 422,-327 428,-327 428,-327 573,-327 573,-327 579,-327 585,-333 585,-339 585,-339 585,-363 585,-363 585,-369 579,-375 573,-375"/>
<text text-anchor="middle" x="500.5" y="-360.2" font-family="Arial" font-size="11.00">sync&#45;server</text>
<text text-anchor="middle" x="500.5" y="-348.2" font-family="Arial" font-size="11.00">synchronisation multi&#45;appareils,</text>
<text text-anchor="middle" x="500.5" y="-336.2" font-family="Arial" font-size="11.00">authentification, secrets</text>
</g>
<!-- ui&#45;&gt;sync -->
<g id="edge8" class="edge">
<title>ui&#45;&gt;sync</title>
<path fill="none" stroke="#64748b" d="M327.18,-435.91C361.89,-419.11 408.98,-396.31 445.32,-378.72"/>
<polygon fill="#64748b" stroke="#64748b" points="446.92,-381.05 452.9,-375.04 444.48,-376.01 446.92,-381.05"/>
<text text-anchor="middle" x="428.5" y="-403" font-family="Arial" font-size="10.00">sync optionnel</text>
</g>
<!-- core -->
<g id="node6" class="node">
<title>core</title>
<path fill="#ecfdf5" stroke="#86efac" d="M448.5,-169C448.5,-169 348.5,-169 348.5,-169 342.5,-169 336.5,-163 336.5,-157 336.5,-157 336.5,-121 336.5,-121 336.5,-115 342.5,-109 348.5,-109 348.5,-109 448.5,-109 448.5,-109 454.5,-109 460.5,-115 460.5,-121 460.5,-121 460.5,-157 460.5,-157 460.5,-163 454.5,-169 448.5,-169"/>
<text text-anchor="middle" x="398.5" y="-154.2" font-family="Arial" font-size="11.00">loot&#45;core</text>
<text text-anchor="middle" x="398.5" y="-142.2" font-family="Arial" font-size="11.00">Noyau métier</text>
<text text-anchor="middle" x="398.5" y="-130.2" font-family="Arial" font-size="11.00">transactions, budgets,</text>
<text text-anchor="middle" x="398.5" y="-118.2" font-family="Arial" font-size="11.00">règles, reports, AQL</text>
</g>
<!-- sqlite -->
<g id="node8" class="node">
<title>sqlite</title>
<path fill="#fff7ed" stroke="#fdba74" d="M603.5,-48C603.5,-48 497.5,-48 497.5,-48 491.5,-48 485.5,-42 485.5,-36 485.5,-36 485.5,-12 485.5,-12 485.5,-6 491.5,0 497.5,0 497.5,0 603.5,0 603.5,0 609.5,0 615.5,-6 615.5,-12 615.5,-12 615.5,-36 615.5,-36 615.5,-42 609.5,-48 603.5,-48"/>
<text text-anchor="middle" x="550.5" y="-33.2" font-family="Arial" font-size="11.00">SQLite local</text>
<text text-anchor="middle" x="550.5" y="-21.2" font-family="Arial" font-size="11.00">budget, tables internes,</text>
<text text-anchor="middle" x="550.5" y="-9.2" font-family="Arial" font-size="11.00">views v_* et migrations</text>
</g>
<!-- core&#45;&gt;sqlite -->
<g id="edge7" class="edge">
<title>core&#45;&gt;sqlite</title>
<path fill="none" stroke="#64748b" d="M437.64,-108.9C460.7,-91.76 489.73,-70.18 512.57,-53.2"/>
<polygon fill="#64748b" stroke="#64748b" points="514.39,-55.33 519.14,-48.31 511.05,-50.84 514.39,-55.33"/>
<text text-anchor="middle" x="501.5" y="-76" font-family="Arial" font-size="10.00">lit / écrit</text>
</g>
<!-- banks -->
<g id="node11" class="node">
<title>banks</title>
<path fill="#f1f5f9" stroke="#cbd5e1" d="M428.5,-42C428.5,-42 310.5,-42 310.5,-42 304.5,-42 298.5,-36 298.5,-30 298.5,-30 298.5,-18 298.5,-18 298.5,-12 304.5,-6 310.5,-6 310.5,-6 428.5,-6 428.5,-6 434.5,-6 440.5,-12 440.5,-18 440.5,-18 440.5,-30 440.5,-30 440.5,-36 434.5,-42 428.5,-42"/>
<text text-anchor="middle" x="369.5" y="-27.2" font-family="Arial" font-size="11.00">Providers externes</text>
<text text-anchor="middle" x="369.5" y="-15.2" font-family="Arial" font-size="11.00">bank sync / import fichiers</text>
</g>
<!-- core&#45;&gt;banks -->
<g id="edge11" class="edge">
<title>core&#45;&gt;banks</title>
<path fill="none" stroke="#64748b" d="M377.35,-108.73C372.89,-101.05 368.83,-92.51 366.5,-84 363.53,-73.15 363.65,-60.77 364.77,-50.16"/>
<polygon fill="#64748b" stroke="#64748b" points="367.56,-50.39 365.83,-42.09 362.01,-49.66 367.56,-50.39"/>
<text text-anchor="middle" x="416.5" y="-76" font-family="Arial" font-size="10.00">import, enrichissement</text>
</g>
<!-- worker&#45;&gt;core -->
<g id="edge6" class="edge">
<title>worker&#45;&gt;core</title>
<path fill="none" stroke="#64748b" d="M278.17,-326.88C277.73,-301.58 280.03,-260.56 296.5,-230 308.22,-208.24 327.41,-189.24 345.99,-174.36"/>
<polygon fill="#64748b" stroke="#64748b" points="348.2,-176.19 352.8,-169.07 344.76,-171.77 348.2,-176.19"/>
<text text-anchor="middle" x="334.5" y="-245.5" font-family="Arial" font-size="10.00">exécute le métier</text>
</g>
<!-- sync&#45;&gt;sqlite -->
<g id="edge9" class="edge">
<title>sync&#45;&gt;sqlite</title>
<path fill="none" stroke="#64748b" stroke-dasharray="5,2" d="M526.43,-326.84C532.87,-319.58 538.94,-311.07 542.5,-302 575.36,-218.25 564.48,-109.05 556.23,-56.27"/>
<polygon fill="#64748b" stroke="#64748b" points="558.98,-55.75 554.94,-48.3 553.45,-56.64 558.98,-55.75"/>
<text text-anchor="middle" x="618" y="-197" font-family="Arial" font-size="10.00">réplique de changements</text>
</g>
<!-- api -->
<g id="node10" class="node">
<title>api</title>
<path fill="#fdf2f8" stroke="#f9a8d4" d="M503,-266C503,-266 400,-266 400,-266 394,-266 388,-260 388,-254 388,-254 388,-242 388,-242 388,-236 394,-230 400,-230 400,-230 503,-230 503,-230 509,-230 515,-236 515,-242 515,-242 515,-254 515,-254 515,-260 509,-266 503,-266"/>
<text text-anchor="middle" x="451.5" y="-251.2" font-family="Arial" font-size="11.00">API / CLI</text>
<text text-anchor="middle" x="451.5" y="-239.2" font-family="Arial" font-size="11.00">@actual&#45;app/api + CLI</text>
</g>
<!-- sync&#45;&gt;api -->
<g id="edge12" class="edge">
<title>sync&#45;&gt;api</title>
<path fill="none" stroke="#64748b" stroke-dasharray="5,2" d="M489.26,-326.83C481.54,-310.91 471.3,-289.81 463.43,-273.6"/>
<polygon fill="#64748b" stroke="#64748b" points="465.8,-272.05 459.78,-266.08 460.76,-274.5 465.8,-272.05"/>
<text text-anchor="middle" x="505" y="-294" font-family="Arial" font-size="10.00">outils serveur</text>
</g>
<!-- api&#45;&gt;core -->
<g id="edge10" class="edge">
<title>api&#45;&gt;core</title>
<path fill="none" stroke="#64748b" d="M439.43,-229.87C434.47,-222.42 428.87,-213.48 424.5,-205 419.89,-196.05 415.54,-186.09 411.77,-176.71"/>
<polygon fill="#64748b" stroke="#64748b" points="414.27,-175.42 408.74,-169 409.06,-177.47 414.27,-175.42"/>
<text text-anchor="middle" x="474.5" y="-197" font-family="Arial" font-size="10.00">accès programmatique</text>
</g>
</g>
</svg>
