<?xml version="1.0" encoding="UTF-8" standalone="no"?>
<!DOCTYPE svg PUBLIC "-//W3C//DTD SVG 1.1//EN"
 "http://www.w3.org/Graphics/SVG/1.1/DTD/svg11.dtd">
<!-- Generated by graphviz version 2.42.4 (0)
 -->
<!-- Title: G Pages: 1 -->
<svg width="456pt" height="344pt"
 viewBox="0.00 0.00 456.20 344.20" xmlns="http://www.w3.org/2000/svg" xmlns:xlink="http://www.w3.org/1999/xlink">
<g id="graph0" class="graph" transform="scale(1 1) rotate(0) translate(21.6 322.6)">
<title>G</title>
<polygon fill="white" stroke="transparent" points="-21.6,21.6 -21.6,-322.6 434.6,-322.6 434.6,21.6 -21.6,21.6"/>
<g id="clust1" class="cluster">
<title>cluster_web</title>
<path fill="white" stroke="#93c5fd" d="M20,-8C20,-8 118,-8 118,-8 124,-8 130,-14 130,-20 130,-20 130,-281 130,-281 130,-287 124,-293 118,-293 118,-293 20,-293 20,-293 14,-293 8,-287 8,-281 8,-281 8,-20 8,-20 8,-14 14,-8 20,-8"/>
<text text-anchor="middle" x="69" y="-277.8" font-family="Arial" font-size="14.00">Mode Web</text>
</g>
<g id="clust2" class="cluster">
<title>cluster_electron</title>
<path fill="white" stroke="#c4b5fd" d="M260,-8C260,-8 383,-8 383,-8 389,-8 395,-14 395,-20 395,-20 395,-281 395,-281 395,-287 389,-293 383,-293 383,-293 260,-293 260,-293 254,-293 248,-287 248,-281 248,-281 248,-20 248,-20 248,-14 254,-8 260,-8"/>
<text text-anchor="middle" x="321.5" y="-277.8" font-family="Arial" font-size="14.00">Mode Electron</text>
</g>
<!-- webui -->
<g id="node1" class="node">
<title>webui</title>
<path fill="#f8fafc" stroke="#cbd5e1" d="M90.5,-262C90.5,-262 55.5,-262 55.5,-262 49.5,-262 43.5,-256 43.5,-250 43.5,-250 43.5,-238 43.5,-238 43.5,-232 49.5,-226 55.5,-226 55.5,-226 90.5,-226 90.5,-226 96.5,-226 102.5,-232 102.5,-238 102.5,-238 102.5,-250 102.5,-250 102.5,-256 96.5,-262 90.5,-262"/>
<text text-anchor="middle" x="73" y="-241.2" font-family="Arial" font-size="11.00">UI React</text>
</g>
<!-- webworker -->
<g id="node2" class="node">
<title>webworker</title>
<path fill="#f8fafc" stroke="#cbd5e1" d="M99.5,-157C99.5,-157 46.5,-157 46.5,-157 40.5,-157 34.5,-151 34.5,-145 34.5,-145 34.5,-133 34.5,-133 34.5,-127 40.5,-121 46.5,-121 46.5,-121 99.5,-121 99.5,-121 105.5,-121 111.5,-127 111.5,-133 111.5,-133 111.5,-145 111.5,-145 111.5,-151 105.5,-157 99.5,-157"/>
<text text-anchor="middle" x="73" y="-142.2" font-family="Arial" font-size="11.00">Web Worker</text>
<text text-anchor="middle" x="73" y="-130.2" font-family="Arial" font-size="11.00">serveur local</text>
</g>
<!-- webui&#45;&gt;webworker -->
<g id="edge1" class="edge">
<title>webui&#45;&gt;webworker</title>
<path fill="none" stroke="#64748b" d="M73,-225.99C73,-209.44 73,-184.1 73,-165.21"/>
<polygon fill="#64748b" stroke="#64748b" points="75.8,-165.03 73,-157.03 70.2,-165.03 75.8,-165.03"/>
<text text-anchor="middle" x="96" y="-189" font-family="Arial" font-size="10.00">messages</text>
</g>
<!-- webdb -->
<g id="node3" class="node">
<title>webdb</title>
<path fill="#f8fafc" stroke="#cbd5e1" d="M109.5,-52C109.5,-52 28.5,-52 28.5,-52 22.5,-52 16.5,-46 16.5,-40 16.5,-40 16.5,-28 16.5,-28 16.5,-22 22.5,-16 28.5,-16 28.5,-16 109.5,-16 109.5,-16 115.5,-16 121.5,-22 121.5,-28 121.5,-28 121.5,-40 121.5,-40 121.5,-46 115.5,-52 109.5,-52"/>
<text text-anchor="middle" x="69" y="-31.2" font-family="Arial" font-size="11.00">SQLite / DB locale</text>
</g>
<!-- webworker&#45;&gt;webdb -->
<g id="edge2" class="edge">
<title>webworker&#45;&gt;webdb</title>
<path fill="none" stroke="#64748b" d="M72.34,-120.99C71.7,-104.44 70.71,-79.1 69.98,-60.21"/>
<polygon fill="#64748b" stroke="#64748b" points="72.77,-59.92 69.66,-52.03 67.17,-60.14 72.77,-59.92"/>
<text text-anchor="middle" x="91" y="-84" font-family="Arial" font-size="10.00">requêtes</text>
</g>
<!-- sync -->
<g id="node7" class="node">
<title>sync</title>
<path fill="#f8fafc" stroke="#cbd5e1" d="M218,-52C218,-52 170,-52 170,-52 164,-52 158,-46 158,-40 158,-40 158,-28 158,-28 158,-22 164,-16 170,-16 170,-16 218,-16 218,-16 224,-16 230,-22 230,-28 230,-28 230,-40 230,-40 230,-46 224,-52 218,-52"/>
<text text-anchor="middle" x="194" y="-37.2" font-family="Arial" font-size="11.00">sync&#45;server</text>
<text text-anchor="middle" x="194" y="-25.2" font-family="Arial" font-size="11.00">optionnel</text>
</g>
<!-- webworker&#45;&gt;sync -->
<g id="edge5" class="edge">
<title>webworker&#45;&gt;sync</title>
<path fill="none" stroke="#64748b" stroke-dasharray="5,2" d="M92.98,-120.99C113.39,-103.62 145.17,-76.56 167.63,-57.45"/>
<polygon fill="#64748b" stroke="#64748b" points="169.71,-59.35 173.99,-52.03 166.08,-55.09 169.71,-59.35"/>
<text text-anchor="middle" x="149" y="-84" font-family="Arial" font-size="10.00">sync</text>
</g>
<!-- eui -->
<g id="node4" class="node">
<title>eui</title>
<path fill="#f8fafc" stroke="#cbd5e1" d="M338.5,-262C338.5,-262 303.5,-262 303.5,-262 297.5,-262 291.5,-256 291.5,-250 291.5,-250 291.5,-238 291.5,-238 291.5,-232 297.5,-226 303.5,-226 303.5,-226 338.5,-226 338.5,-226 344.5,-226 350.5,-232 350.5,-238 350.5,-238 350.5,-250 350.5,-250 350.5,-256 344.5,-262 338.5,-262"/>
<text text-anchor="middle" x="321" y="-241.2" font-family="Arial" font-size="11.00">UI React</text>
</g>
<!-- child -->
<g id="node5" class="node">
<title>child</title>
<path fill="#f8fafc" stroke="#cbd5e1" d="M373.5,-157C373.5,-157 268.5,-157 268.5,-157 262.5,-157 256.5,-151 256.5,-145 256.5,-145 256.5,-133 256.5,-133 256.5,-127 262.5,-121 268.5,-121 268.5,-121 373.5,-121 373.5,-121 379.5,-121 385.5,-127 385.5,-133 385.5,-133 385.5,-145 385.5,-145 385.5,-151 379.5,-157 373.5,-157"/>
<text text-anchor="middle" x="321" y="-136.2" font-family="Arial" font-size="11.00">Processus Node enfant</text>
</g>
<!-- eui&#45;&gt;child -->
<g id="edge3" class="edge">
<title>eui&#45;&gt;child</title>
<path fill="none" stroke="#64748b" d="M321,-225.99C321,-209.44 321,-184.1 321,-165.21"/>
<polygon fill="#64748b" stroke="#64748b" points="323.8,-165.03 321,-157.03 318.2,-165.03 323.8,-165.03"/>
<text text-anchor="middle" x="346.5" y="-189" font-family="Arial" font-size="10.00">WebSocket</text>
</g>
<!-- edb -->
<g id="node6" class="node">
<title>edb</title>
<path fill="#f8fafc" stroke="#cbd5e1" d="M352,-52C352,-52 278,-52 278,-52 272,-52 266,-46 266,-40 266,-40 266,-28 266,-28 266,-22 272,-16 278,-16 278,-16 352,-16 352,-16 358,-16 364,-22 364,-28 364,-28 364,-40 364,-40 364,-46 358,-52 352,-52"/>
<text text-anchor="middle" x="315" y="-31.2" font-family="Arial" font-size="11.00">SQLite / FS local</text>
</g>
<!-- child&#45;&gt;edb -->
<g id="edge4" class="edge">
<title>child&#45;&gt;edb</title>
<path fill="none" stroke="#64748b" d="M320.01,-120.99C319.05,-104.44 317.57,-79.1 316.47,-60.21"/>
<polygon fill="#64748b" stroke="#64748b" points="319.25,-59.86 315.99,-52.03 313.66,-60.18 319.25,-59.86"/>
<text text-anchor="middle" x="365.5" y="-84" font-family="Arial" font-size="10.00">requêtes / accès natif</text>
</g>
<!-- child&#45;&gt;sync -->
<g id="edge6" class="edge">
<title>child&#45;&gt;sync</title>
<path fill="none" stroke="#64748b" stroke-dasharray="5,2" d="M300.03,-120.99C278.52,-103.55 244.96,-76.33 221.37,-57.2"/>
<polygon fill="#64748b" stroke="#64748b" points="222.98,-54.9 215,-52.03 219.45,-59.25 222.98,-54.9"/>
<text text-anchor="middle" x="272" y="-84" font-family="Arial" font-size="10.00">sync</text>
</g>
</g>
</svg>
