<?xml version="1.0" encoding="UTF-8" standalone="no"?>
<!DOCTYPE svg PUBLIC "-//W3C//DTD SVG 1.1//EN"
 "http://www.w3.org/Graphics/SVG/1.1/DTD/svg11.dtd">
<!-- Generated by graphviz version 2.42.4 (0)
 -->
<!-- Title: G Pages: 1 -->
<svg width="906pt" height="966pt"
 viewBox="0.00 0.00 905.70 966.20" xmlns="http://www.w3.org/2000/svg" xmlns:xlink="http://www.w3.org/1999/xlink">
<g id="graph0" class="graph" transform="scale(1 1) rotate(0) translate(21.6 944.6)">
<title>G</title>
<polygon fill="white" stroke="transparent" points="-21.6,21.6 -21.6,-944.6 884.1,-944.6 884.1,21.6 -21.6,21.6"/>
<!-- Budget -->
<g id="node1" class="node">
<title>Budget</title>
<path fill="#f8fafc" stroke="#cbd5e1" d="M56.5,-385.5C56.5,-385.5 162.5,-385.5 162.5,-385.5 168.5,-385.5 174.5,-391.5 174.5,-397.5 174.5,-397.5 174.5,-449.5 174.5,-449.5 174.5,-455.5 168.5,-461.5 162.5,-461.5 162.5,-461.5 56.5,-461.5 56.5,-461.5 50.5,-461.5 44.5,-455.5 44.5,-449.5 44.5,-449.5 44.5,-397.5 44.5,-397.5 44.5,-391.5 50.5,-385.5 56.5,-385.5"/>
<text text-anchor="middle" x="109.5" y="-449.5" font-family="Arial" font-size="10.00">Budget / BudgetMetaData</text>
<polyline fill="none" stroke="#cbd5e1" points="44.5,-442.5 174.5,-442.5 "/>
<text text-anchor="middle" x="109.5" y="-430.5" font-family="Arial" font-size="10.00">type de budget</text>
<polyline fill="none" stroke="#cbd5e1" points="44.5,-423.5 174.5,-423.5 "/>
<text text-anchor="middle" x="109.5" y="-411.5" font-family="Arial" font-size="10.00">locale / devise</text>
<polyline fill="none" stroke="#cbd5e1" points="44.5,-404.5 174.5,-404.5 "/>
<text text-anchor="middle" x="109.5" y="-392.5" font-family="Arial" font-size="10.00">strictBudget</text>
</g>
<!-- Category -->
<g id="node7" class="node">
<title>Category</title>
<path fill="#f8fafc" stroke="#cbd5e1" d="M126.5,-164.5C126.5,-164.5 290.5,-164.5 290.5,-164.5 296.5,-164.5 302.5,-170.5 302.5,-176.5 302.5,-176.5 302.5,-247.5 302.5,-247.5 302.5,-253.5 296.5,-259.5 290.5,-259.5 290.5,-259.5 126.5,-259.5 126.5,-259.5 120.5,-259.5 114.5,-253.5 114.5,-247.5 114.5,-247.5 114.5,-176.5 114.5,-176.5 114.5,-170.5 120.5,-164.5 126.5,-164.5"/>
<text text-anchor="middle" x="208.5" y="-247.5" font-family="Arial" font-size="10.00">Category / MonthlySubCategoryBudget</text>
<polyline fill="none" stroke="#cbd5e1" points="114.5,-240.5 302.5,-240.5 "/>
<text text-anchor="middle" x="208.5" y="-228.5" font-family="Arial" font-size="10.00">groupe</text>
<polyline fill="none" stroke="#cbd5e1" points="114.5,-221.5 302.5,-221.5 "/>
<text text-anchor="middle" x="208.5" y="-209.5" font-family="Arial" font-size="10.00">enveloppe mensuelle</text>
<polyline fill="none" stroke="#cbd5e1" points="114.5,-202.5 302.5,-202.5 "/>
<text text-anchor="middle" x="208.5" y="-190.5" font-family="Arial" font-size="10.00">activité</text>
<polyline fill="none" stroke="#cbd5e1" points="114.5,-183.5 302.5,-183.5 "/>
<text text-anchor="middle" x="208.5" y="-171.5" font-family="Arial" font-size="10.00">solde / rollover</text>
</g>
<!-- Budget&#45;&gt;Category -->
<g id="edge1" class="edge">
<title>Budget&#45;&gt;Category</title>
<path fill="none" stroke="#64748b" d="M116.74,-385.41C123.03,-357.81 133.66,-319.76 149.5,-289 153.58,-281.07 158.53,-273.14 163.8,-265.56"/>
<polygon fill="#64748b" stroke="#64748b" points="165.82,-266.96 167.89,-259.84 161.83,-264.11 165.82,-266.96"/>
<text text-anchor="middle" x="180.5" y="-291.8" font-family="Arial" font-size="9.00">contient / pilote</text>
</g>
<!-- Sync -->
<g id="node10" class="node">
<title>Sync</title>
<path fill="#f8fafc" stroke="#cbd5e1" d="M12,-164.5C12,-164.5 73,-164.5 73,-164.5 79,-164.5 85,-170.5 85,-176.5 85,-176.5 85,-247.5 85,-247.5 85,-253.5 79,-259.5 73,-259.5 73,-259.5 12,-259.5 12,-259.5 6,-259.5 0,-253.5 0,-247.5 0,-247.5 0,-176.5 0,-176.5 0,-170.5 6,-164.5 12,-164.5"/>
<text text-anchor="middle" x="42.5" y="-247.5" font-family="Arial" font-size="10.00">Sync State</text>
<polyline fill="none" stroke="#cbd5e1" points="0,-240.5 85,-240.5 "/>
<text text-anchor="middle" x="42.5" y="-228.5" font-family="Arial" font-size="10.00">syncId</text>
<polyline fill="none" stroke="#cbd5e1" points="0,-221.5 85,-221.5 "/>
<text text-anchor="middle" x="42.5" y="-209.5" font-family="Arial" font-size="10.00">knowledge</text>
<polyline fill="none" stroke="#cbd5e1" points="0,-202.5 85,-202.5 "/>
<text text-anchor="middle" x="42.5" y="-190.5" font-family="Arial" font-size="10.00">changelog</text>
<polyline fill="none" stroke="#cbd5e1" points="0,-183.5 85,-183.5 "/>
<text text-anchor="middle" x="42.5" y="-171.5" font-family="Arial" font-size="10.00">E2E optionnelle</text>
</g>
<!-- Budget&#45;&gt;Sync -->
<g id="edge10" class="edge">
<title>Budget&#45;&gt;Sync</title>
<path fill="none" stroke="#64748b" d="M97.52,-385.05C86.96,-352.03 71.46,-303.54 59.59,-266.45"/>
<polygon fill="#64748b" stroke="#64748b" points="61.89,-265.58 57.42,-259.66 57.22,-267.08 61.89,-265.58"/>
<text text-anchor="middle" x="87.5" y="-291.8" font-family="Arial" font-size="9.00">réplique</text>
</g>
<!-- Account -->
<g id="node2" class="node">
<title>Account</title>
<path fill="#f8fafc" stroke="#cbd5e1" d="M416.5,-808.5C416.5,-808.5 508.5,-808.5 508.5,-808.5 514.5,-808.5 520.5,-814.5 520.5,-820.5 520.5,-820.5 520.5,-910.5 520.5,-910.5 520.5,-916.5 514.5,-922.5 508.5,-922.5 508.5,-922.5 416.5,-922.5 416.5,-922.5 410.5,-922.5 404.5,-916.5 404.5,-910.5 404.5,-910.5 404.5,-820.5 404.5,-820.5 404.5,-814.5 410.5,-808.5 416.5,-808.5"/>
<text text-anchor="middle" x="462.5" y="-910.5" font-family="Arial" font-size="10.00">Account</text>
<polyline fill="none" stroke="#cbd5e1" points="404.5,-903.5 520.5,-903.5 "/>
<text text-anchor="middle" x="462.5" y="-891.5" font-family="Arial" font-size="10.00">accountName</text>
<polyline fill="none" stroke="#cbd5e1" points="404.5,-884.5 520.5,-884.5 "/>
<text text-anchor="middle" x="462.5" y="-872.5" font-family="Arial" font-size="10.00">accountType</text>
<polyline fill="none" stroke="#cbd5e1" points="404.5,-865.5 520.5,-865.5 "/>
<text text-anchor="middle" x="462.5" y="-853.5" font-family="Arial" font-size="10.00">onBudget</text>
<polyline fill="none" stroke="#cbd5e1" points="404.5,-846.5 520.5,-846.5 "/>
<text text-anchor="middle" x="462.5" y="-834.5" font-family="Arial" font-size="10.00">hidden</text>
<polyline fill="none" stroke="#cbd5e1" points="404.5,-827.5 520.5,-827.5 "/>
<text text-anchor="middle" x="462.5" y="-815.5" font-family="Arial" font-size="10.00">lastReconciledBalance</text>
</g>
<!-- Transaction -->
<g id="node3" class="node">
<title>Transaction</title>
<path fill="#f8fafc" stroke="#cbd5e1" d="M431.5,-328.5C431.5,-328.5 521.5,-328.5 521.5,-328.5 527.5,-328.5 533.5,-334.5 533.5,-340.5 533.5,-340.5 533.5,-506.5 533.5,-506.5 533.5,-512.5 527.5,-518.5 521.5,-518.5 521.5,-518.5 431.5,-518.5 431.5,-518.5 425.5,-518.5 419.5,-512.5 419.5,-506.5 419.5,-506.5 419.5,-340.5 419.5,-340.5 419.5,-334.5 425.5,-328.5 431.5,-328.5"/>
<text text-anchor="middle" x="476.5" y="-506.5" font-family="Arial" font-size="10.00">Transaction</text>
<polyline fill="none" stroke="#cbd5e1" points="419.5,-499.5 533.5,-499.5 "/>
<text text-anchor="middle" x="476.5" y="-487.5" font-family="Arial" font-size="10.00">date</text>
<polyline fill="none" stroke="#cbd5e1" points="419.5,-480.5 533.5,-480.5 "/>
<text text-anchor="middle" x="476.5" y="-468.5" font-family="Arial" font-size="10.00">amount</text>
<polyline fill="none" stroke="#cbd5e1" points="419.5,-461.5 533.5,-461.5 "/>
<text text-anchor="middle" x="476.5" y="-449.5" font-family="Arial" font-size="10.00">accountId</text>
<polyline fill="none" stroke="#cbd5e1" points="419.5,-442.5 533.5,-442.5 "/>
<text text-anchor="middle" x="476.5" y="-430.5" font-family="Arial" font-size="10.00">payeeId</text>
<polyline fill="none" stroke="#cbd5e1" points="419.5,-423.5 533.5,-423.5 "/>
<text text-anchor="middle" x="476.5" y="-411.5" font-family="Arial" font-size="10.00">categoryId</text>
<polyline fill="none" stroke="#cbd5e1" points="419.5,-404.5 533.5,-404.5 "/>
<text text-anchor="middle" x="476.5" y="-392.5" font-family="Arial" font-size="10.00">cleared</text>
<polyline fill="none" stroke="#cbd5e1" points="419.5,-385.5 533.5,-385.5 "/>
<text text-anchor="middle" x="476.5" y="-373.5" font-family="Arial" font-size="10.00">accepted</text>
<polyline fill="none" stroke="#cbd5e1" points="419.5,-366.5 533.5,-366.5 "/>
<text text-anchor="middle" x="476.5" y="-354.5" font-family="Arial" font-size="10.00">memo</text>
<polyline fill="none" stroke="#cbd5e1" points="419.5,-347.5 533.5,-347.5 "/>
<text text-anchor="middle" x="476.5" y="-335.5" font-family="Arial" font-size="10.00">transferTransactionId?</text>
</g>
<!-- Account&#45;&gt;Transaction -->
<g id="edge2" class="edge">
<title>Account&#45;&gt;Transaction</title>
<path fill="none" stroke="#64748b" d="M457.59,-808.46C455.94,-787.06 454.31,-762.41 453.5,-740 451.05,-672.04 448.72,-654.83 453.5,-587 454.9,-567.17 457.24,-546.08 459.91,-525.88"/>
<polygon fill="#64748b" stroke="#64748b" points="462.36,-526.05 460.87,-518.78 457.51,-525.39 462.36,-526.05"/>
<text text-anchor="middle" x="461.5" y="-661.3" font-family="Arial" font-size="9.00">1..n</text>
</g>
<!-- Schedule -->
<g id="node5" class="node">
<title>Schedule</title>
<path fill="#f8fafc" stroke="#cbd5e1" d="M496,-587.5C496,-587.5 585,-587.5 585,-587.5 591,-587.5 597,-593.5 597,-599.5 597,-599.5 597,-727.5 597,-727.5 597,-733.5 591,-739.5 585,-739.5 585,-739.5 496,-739.5 496,-739.5 490,-739.5 484,-733.5 484,-727.5 484,-727.5 484,-599.5 484,-599.5 484,-593.5 490,-587.5 496,-587.5"/>
<text text-anchor="middle" x="540.5" y="-727.5" font-family="Arial" font-size="10.00">ScheduledTransaction</text>
<polyline fill="none" stroke="#cbd5e1" points="484,-720.5 597,-720.5 "/>
<text text-anchor="middle" x="540.5" y="-708.5" font-family="Arial" font-size="10.00">frequency</text>
<polyline fill="none" stroke="#cbd5e1" points="484,-701.5 597,-701.5 "/>
<text text-anchor="middle" x="540.5" y="-689.5" font-family="Arial" font-size="10.00">next date</text>
<polyline fill="none" stroke="#cbd5e1" points="484,-682.5 597,-682.5 "/>
<text text-anchor="middle" x="540.5" y="-670.5" font-family="Arial" font-size="10.00">accountId</text>
<polyline fill="none" stroke="#cbd5e1" points="484,-663.5 597,-663.5 "/>
<text text-anchor="middle" x="540.5" y="-651.5" font-family="Arial" font-size="10.00">payeeId</text>
<polyline fill="none" stroke="#cbd5e1" points="484,-644.5 597,-644.5 "/>
<text text-anchor="middle" x="540.5" y="-632.5" font-family="Arial" font-size="10.00">categoryId</text>
<polyline fill="none" stroke="#cbd5e1" points="484,-625.5 597,-625.5 "/>
<text text-anchor="middle" x="540.5" y="-613.5" font-family="Arial" font-size="10.00">amount</text>
<polyline fill="none" stroke="#cbd5e1" points="484,-606.5 597,-606.5 "/>
<text text-anchor="middle" x="540.5" y="-594.5" font-family="Arial" font-size="10.00">memo</text>
</g>
<!-- Account&#45;&gt;Schedule -->
<g id="edge12" class="edge">
<title>Account&#45;&gt;Schedule</title>
<path fill="none" stroke="#64748b" d="M484.43,-808.26C491.92,-789.07 500.44,-767.22 508.55,-746.43"/>
<polygon fill="#64748b" stroke="#64748b" points="510.9,-747.14 511.16,-739.73 506.33,-745.36 510.9,-747.14"/>
<text text-anchor="middle" x="509.5" y="-771.8" font-family="Arial" font-size="9.00">porte</text>
</g>
<!-- SubTx -->
<g id="node4" class="node">
<title>SubTx</title>
<path fill="#f8fafc" stroke="#cbd5e1" d="M706.5,-187.5C706.5,-187.5 850.5,-187.5 850.5,-187.5 856.5,-187.5 862.5,-193.5 862.5,-199.5 862.5,-199.5 862.5,-224.5 862.5,-224.5 862.5,-230.5 856.5,-236.5 850.5,-236.5 850.5,-236.5 706.5,-236.5 706.5,-236.5 700.5,-236.5 694.5,-230.5 694.5,-224.5 694.5,-224.5 694.5,-199.5 694.5,-199.5 694.5,-193.5 700.5,-187.5 706.5,-187.5"/>
<text text-anchor="middle" x="778.5" y="-224.5" font-family="Arial" font-size="10.00">SubTransaction</text>
<polyline fill="none" stroke="#cbd5e1" points="694.5,-217.5 862.5,-217.5 "/>
<text text-anchor="middle" x="778.5" y="-205.5" font-family="Arial" font-size="10.00">hérite du modèle Transaction</text>
<text text-anchor="middle" x="778.5" y="-194.5" font-family="Arial" font-size="10.00">sans sous&#45;transactions imbriquées</text>
</g>
<!-- Transaction&#45;&gt;SubTx -->
<g id="edge5" class="edge">
<title>Transaction&#45;&gt;SubTx</title>
<path fill="none" stroke="#64748b" d="M533.66,-382.85C593.59,-341.27 686.21,-277.02 738.67,-240.63"/>
<polygon fill="#64748b" stroke="#64748b" points="740.2,-242.55 744.56,-236.55 737.41,-238.52 740.2,-242.55"/>
<text text-anchor="middle" x="682" y="-291.8" font-family="Arial" font-size="9.00">0..n splits</text>
</g>
<!-- Payee -->
<g id="node6" class="node">
<title>Payee</title>
<path fill="#f8fafc" stroke="#cbd5e1" d="M344,-164.5C344,-164.5 423,-164.5 423,-164.5 429,-164.5 435,-170.5 435,-176.5 435,-176.5 435,-247.5 435,-247.5 435,-253.5 429,-259.5 423,-259.5 423,-259.5 344,-259.5 344,-259.5 338,-259.5 332,-253.5 332,-247.5 332,-247.5 332,-176.5 332,-176.5 332,-170.5 338,-164.5 344,-164.5"/>
<text text-anchor="middle" x="383.5" y="-247.5" font-family="Arial" font-size="10.00">Payee</text>
<polyline fill="none" stroke="#cbd5e1" points="332,-240.5 435,-240.5 "/>
<text text-anchor="middle" x="383.5" y="-228.5" font-family="Arial" font-size="10.00">nom</text>
<polyline fill="none" stroke="#cbd5e1" points="332,-221.5 435,-221.5 "/>
<text text-anchor="middle" x="383.5" y="-209.5" font-family="Arial" font-size="10.00">règles associées</text>
<polyline fill="none" stroke="#cbd5e1" points="332,-202.5 435,-202.5 "/>
<text text-anchor="middle" x="383.5" y="-190.5" font-family="Arial" font-size="10.00">catégorie par défaut</text>
<polyline fill="none" stroke="#cbd5e1" points="332,-183.5 435,-183.5 "/>
<text text-anchor="middle" x="383.5" y="-171.5" font-family="Arial" font-size="10.00">favori?</text>
</g>
<!-- Transaction&#45;&gt;Payee -->
<g id="edge3" class="edge">
<title>Transaction&#45;&gt;Payee</title>
<path fill="none" stroke="#64748b" d="M434.76,-328.47C425.34,-307.26 415.66,-285.45 407.28,-266.58"/>
<polygon fill="#64748b" stroke="#64748b" points="409.34,-265.17 404.26,-259.76 404.86,-267.15 409.34,-265.17"/>
<text text-anchor="middle" x="442.5" y="-291.8" font-family="Arial" font-size="9.00">référence</text>
</g>
<!-- Transaction&#45;&gt;Category -->
<g id="edge4" class="edge">
<title>Transaction&#45;&gt;Category</title>
<path fill="none" stroke="#64748b" d="M419.34,-377.81C376.73,-344.51 318.47,-298.97 273.99,-264.2"/>
<polygon fill="#64748b" stroke="#64748b" points="275.39,-262.18 268.36,-259.8 272.37,-266.04 275.39,-262.18"/>
<text text-anchor="middle" x="340" y="-291.8" font-family="Arial" font-size="9.00">catégorise</text>
</g>
<!-- Report -->
<g id="node9" class="node">
<title>Report</title>
<path fill="#f8fafc" stroke="#cbd5e1" d="M476,-174C476,-174 551,-174 551,-174 557,-174 563,-180 563,-186 563,-186 563,-238 563,-238 563,-244 557,-250 551,-250 551,-250 476,-250 476,-250 470,-250 464,-244 464,-238 464,-238 464,-186 464,-186 464,-180 470,-174 476,-174"/>
<text text-anchor="middle" x="513.5" y="-238" font-family="Arial" font-size="10.00">Report / AQL</text>
<polyline fill="none" stroke="#cbd5e1" points="464,-231 563,-231 "/>
<text text-anchor="middle" x="513.5" y="-219" font-family="Arial" font-size="10.00">requêtes</text>
<polyline fill="none" stroke="#cbd5e1" points="464,-212 563,-212 "/>
<text text-anchor="middle" x="513.5" y="-200" font-family="Arial" font-size="10.00">agrégations</text>
<polyline fill="none" stroke="#cbd5e1" points="464,-193 563,-193 "/>
<text text-anchor="middle" x="513.5" y="-181" font-family="Arial" font-size="10.00">graphiques / tables</text>
</g>
<!-- Transaction&#45;&gt;Report -->
<g id="edge9" class="edge">
<title>Transaction&#45;&gt;Report</title>
<path fill="none" stroke="#64748b" d="M493.11,-328.47C497.49,-303.66 502.01,-278.04 505.68,-257.25"/>
<polygon fill="#64748b" stroke="#64748b" points="508.14,-257.43 506.95,-250.11 503.32,-256.58 508.14,-257.43"/>
<text text-anchor="middle" x="535" y="-291.8" font-family="Arial" font-size="9.00">source analytique</text>
</g>
<!-- Transaction&#45;&gt;Sync -->
<g id="edge11" class="edge">
<title>Transaction&#45;&gt;Sync</title>
<path fill="none" stroke="#64748b" d="M419.41,-388.68C367.45,-359.05 287.86,-316.54 214.5,-289 165.15,-270.47 146.54,-283.79 99.5,-260 96.8,-258.63 94.11,-257.12 91.45,-255.49"/>
<polygon fill="#64748b" stroke="#64748b" points="92.53,-253.27 85.32,-251.52 89.87,-257.39 92.53,-253.27"/>
<text text-anchor="middle" x="262.5" y="-291.8" font-family="Arial" font-size="9.00">change sets</text>
</g>
<!-- Schedule&#45;&gt;Transaction -->
<g id="edge6" class="edge">
<title>Schedule&#45;&gt;Transaction</title>
<path fill="none" stroke="#64748b" d="M520.25,-587.2C514.99,-567.62 509.23,-546.21 503.67,-525.54"/>
<polygon fill="#64748b" stroke="#64748b" points="505.98,-524.69 501.79,-518.56 501.25,-525.96 505.98,-524.69"/>
<text text-anchor="middle" x="534.5" y="-550.8" font-family="Arial" font-size="9.00">génère / lie</text>
</g>
<!-- Rule -->
<g id="node8" class="node">
<title>Rule</title>
<path fill="#f8fafc" stroke="#cbd5e1" d="M468.5,-0.5C468.5,-0.5 536.5,-0.5 536.5,-0.5 542.5,-0.5 548.5,-6.5 548.5,-12.5 548.5,-12.5 548.5,-83.5 548.5,-83.5 548.5,-89.5 542.5,-95.5 536.5,-95.5 536.5,-95.5 468.5,-95.5 468.5,-95.5 462.5,-95.5 456.5,-89.5 456.5,-83.5 456.5,-83.5 456.5,-12.5 456.5,-12.5 456.5,-6.5 462.5,-0.5 468.5,-0.5"/>
<text text-anchor="middle" x="502.5" y="-83.5" font-family="Arial" font-size="10.00">Rule</text>
<polyline fill="none" stroke="#cbd5e1" points="456.5,-76.5 548.5,-76.5 "/>
<text text-anchor="middle" x="502.5" y="-64.5" font-family="Arial" font-size="10.00">conditions</text>
<polyline fill="none" stroke="#cbd5e1" points="456.5,-57.5 548.5,-57.5 "/>
<text text-anchor="middle" x="502.5" y="-45.5" font-family="Arial" font-size="10.00">actions</text>
<polyline fill="none" stroke="#cbd5e1" points="456.5,-38.5 548.5,-38.5 "/>
<text text-anchor="middle" x="502.5" y="-26.5" font-family="Arial" font-size="10.00">ordre / spécificité</text>
<polyline fill="none" stroke="#cbd5e1" points="456.5,-19.5 548.5,-19.5 "/>
<text text-anchor="middle" x="502.5" y="-7.5" font-family="Arial" font-size="10.00">pré/post import</text>
</g>
<!-- Payee&#45;&gt;Rule -->
<g id="edge8" class="edge">
<title>Payee&#45;&gt;Rule</title>
<path fill="none" stroke="#64748b" d="M417.92,-164.14C432.29,-144.58 449.05,-121.77 463.84,-101.63"/>
<polygon fill="#64748b" stroke="#64748b" points="465.99,-102.84 468.16,-95.75 462.04,-99.94 465.99,-102.84"/>
<text text-anchor="middle" x="465.5" y="-127.8" font-family="Arial" font-size="9.00">alimente</text>
</g>
<!-- Rule&#45;&gt;Transaction -->
<g id="edge7" class="edge">
<title>Rule&#45;&gt;Transaction</title>
<path fill="none" stroke="#64748b" d="M541.66,-95.71C555.82,-115.49 570.13,-139.58 577.5,-164 690.06,-537.19 587.61,-273.65 578.5,-299 569.94,-322.8 554.59,-345.28 538.35,-364.37"/>
<polygon fill="#64748b" stroke="#64748b" points="536.5,-362.77 533.76,-369.66 540.2,-365.98 536.5,-362.77"/>
<text text-anchor="middle" x="626.5" y="-209.8" font-family="Arial" font-size="9.00">transforme</text>
</g>
</g>
</svg>
