<?xml version="1.0" encoding="UTF-8" standalone="no"?>
<!DOCTYPE svg PUBLIC "-//W3C//DTD SVG 1.1//EN"
 "http://www.w3.org/Graphics/SVG/1.1/DTD/svg11.dtd">
<!-- Generated by graphviz version 2.42.4 (0)
 -->
<!-- Title: G Pages: 1 -->
<svg width="190pt" height="717pt"
 viewBox="0.00 0.00 190.20 717.20" xmlns="http://www.w3.org/2000/svg" xmlns:xlink="http://www.w3.org/1999/xlink">
<g id="graph0" class="graph" transform="scale(1 1) rotate(0) translate(21.6 695.6)">
<title>G</title>
<polygon fill="white" stroke="transparent" points="-21.6,21.6 -21.6,-695.6 168.6,-695.6 168.6,21.6 -21.6,21.6"/>
<!-- a -->
<g id="node1" class="node">
<title>a</title>
<path fill="#eef2ff" stroke="#a5b4fc" d="M121,-674C121,-674 26,-674 26,-674 20,-674 14,-668 14,-662 14,-662 14,-650 14,-650 14,-644 20,-638 26,-638 26,-638 121,-638 121,-638 127,-638 133,-644 133,-650 133,-650 133,-662 133,-662 133,-668 127,-674 121,-674"/>
<text text-anchor="middle" x="73.5" y="-659.2" font-family="Arial" font-size="11.00">1. Saisie manuelle</text>
<text text-anchor="middle" x="73.5" y="-647.2" font-family="Arial" font-size="11.00">ou import / bank sync</text>
</g>
<!-- b -->
<g id="node2" class="node">
<title>b</title>
<path fill="#eef2ff" stroke="#a5b4fc" d="M124,-573C124,-573 23,-573 23,-573 17,-573 11,-567 11,-561 11,-561 11,-541 11,-541 11,-535 17,-529 23,-529 23,-529 124,-529 124,-529 130,-529 136,-535 136,-541 136,-541 136,-561 136,-561 136,-567 130,-573 124,-573"/>
<text text-anchor="middle" x="73.5" y="-560.2" font-family="Arial" font-size="11.00">2. Normalisation</text>
<text text-anchor="middle" x="73.5" y="-548.2" font-family="Arial" font-size="11.00">format, payee importé,</text>
<text text-anchor="middle" x="73.5" y="-536.2" font-family="Arial" font-size="11.00">dates, montants</text>
</g>
<!-- a&#45;&gt;b -->
<g id="edge1" class="edge">
<title>a&#45;&gt;b</title>
<path fill="none" stroke="#64748b" d="M73.5,-637.99C73.5,-622.63 73.5,-599.69 73.5,-581.37"/>
<polygon fill="#64748b" stroke="#64748b" points="76.3,-581.32 73.5,-573.32 70.7,-581.32 76.3,-581.32"/>
</g>
<!-- c -->
<g id="node3" class="node">
<title>c</title>
<path fill="#ecfdf5" stroke="#86efac" d="M128,-464C128,-464 19,-464 19,-464 13,-464 7,-458 7,-452 7,-452 7,-440 7,-440 7,-434 13,-428 19,-428 19,-428 128,-428 128,-428 134,-428 140,-434 140,-440 140,-440 140,-452 140,-452 140,-458 134,-464 128,-464"/>
<text text-anchor="middle" x="73.5" y="-449.2" font-family="Arial" font-size="11.00">3. Application des règles</text>
<text text-anchor="middle" x="73.5" y="-437.2" font-family="Arial" font-size="11.00">ordre + spécificité</text>
</g>
<!-- b&#45;&gt;c -->
<g id="edge2" class="edge">
<title>b&#45;&gt;c</title>
<path fill="none" stroke="#64748b" d="M73.5,-528.66C73.5,-512.25 73.5,-489.54 73.5,-472.23"/>
<polygon fill="#64748b" stroke="#64748b" points="76.3,-472.22 73.5,-464.22 70.7,-472.22 76.3,-472.22"/>
</g>
<!-- d -->
<g id="node4" class="node">
<title>d</title>
<path fill="#ecfdf5" stroke="#86efac" d="M126.5,-363C126.5,-363 20.5,-363 20.5,-363 14.5,-363 8.5,-357 8.5,-351 8.5,-351 8.5,-331 8.5,-331 8.5,-325 14.5,-319 20.5,-319 20.5,-319 126.5,-319 126.5,-319 132.5,-319 138.5,-325 138.5,-331 138.5,-331 138.5,-351 138.5,-351 138.5,-357 132.5,-363 126.5,-363"/>
<text text-anchor="middle" x="73.5" y="-350.2" font-family="Arial" font-size="11.00">4. Résolution métier</text>
<text text-anchor="middle" x="73.5" y="-338.2" font-family="Arial" font-size="11.00">payee, catégorie,</text>
<text text-anchor="middle" x="73.5" y="-326.2" font-family="Arial" font-size="11.00">transfert, split, schedule</text>
</g>
<!-- c&#45;&gt;d -->
<g id="edge3" class="edge">
<title>c&#45;&gt;d</title>
<path fill="none" stroke="#64748b" d="M73.5,-427.99C73.5,-412.63 73.5,-389.69 73.5,-371.37"/>
<polygon fill="#64748b" stroke="#64748b" points="76.3,-371.32 73.5,-363.32 70.7,-371.32 76.3,-371.32"/>
</g>
<!-- e -->
<g id="node5" class="node">
<title>e</title>
<path fill="#fefce8" stroke="#fde68a" d="M135,-254C135,-254 12,-254 12,-254 6,-254 0,-248 0,-242 0,-242 0,-222 0,-222 0,-216 6,-210 12,-210 12,-210 135,-210 135,-210 141,-210 147,-216 147,-222 147,-222 147,-242 147,-242 147,-248 141,-254 135,-254"/>
<text text-anchor="middle" x="73.5" y="-241.2" font-family="Arial" font-size="11.00">5. Persistance</text>
<text text-anchor="middle" x="73.5" y="-229.2" font-family="Arial" font-size="11.00">transactions&#45;batch&#45;update /</text>
<text text-anchor="middle" x="73.5" y="-217.2" font-family="Arial" font-size="11.00">transaction&#45;add / update</text>
</g>
<!-- d&#45;&gt;e -->
<g id="edge4" class="edge">
<title>d&#45;&gt;e</title>
<path fill="none" stroke="#64748b" d="M73.5,-318.86C73.5,-302.74 73.5,-280.34 73.5,-262.46"/>
<polygon fill="#64748b" stroke="#64748b" points="76.3,-262.1 73.5,-254.1 70.7,-262.1 76.3,-262.1"/>
</g>
<!-- f -->
<g id="node6" class="node">
<title>f</title>
<path fill="#fff7ed" stroke="#fdba74" d="M125,-145C125,-145 22,-145 22,-145 16,-145 10,-139 10,-133 10,-133 10,-113 10,-113 10,-107 16,-101 22,-101 22,-101 125,-101 125,-101 131,-101 137,-107 137,-113 137,-113 137,-133 137,-133 137,-139 131,-145 125,-145"/>
<text text-anchor="middle" x="73.5" y="-132.2" font-family="Arial" font-size="11.00">6. Effets dérivés</text>
<text text-anchor="middle" x="73.5" y="-120.2" font-family="Arial" font-size="11.00">budgets, balances,</text>
<text text-anchor="middle" x="73.5" y="-108.2" font-family="Arial" font-size="11.00">rapports, autocomplete</text>
</g>
<!-- e&#45;&gt;f -->
<g id="edge5" class="edge">
<title>e&#45;&gt;f</title>
<path fill="none" stroke="#64748b" d="M73.5,-209.86C73.5,-193.74 73.5,-171.34 73.5,-153.46"/>
<polygon fill="#64748b" stroke="#64748b" points="76.3,-153.1 73.5,-145.1 70.7,-153.1 76.3,-153.1"/>
</g>
<!-- g -->
<g id="node7" class="node">
<title>g</title>
<path fill="#fdf2f8" stroke="#f9a8d4" d="M111,-36C111,-36 36,-36 36,-36 30,-36 24,-30 24,-24 24,-24 24,-12 24,-12 24,-6 30,0 36,0 36,0 111,0 111,0 117,0 123,-6 123,-12 123,-12 123,-24 123,-24 123,-30 117,-36 111,-36"/>
<text text-anchor="middle" x="73.5" y="-21.2" font-family="Arial" font-size="11.00">7. Sync optionnel</text>
<text text-anchor="middle" x="73.5" y="-9.2" font-family="Arial" font-size="11.00">vers sync&#45;server</text>
</g>
<!-- f&#45;&gt;g -->
<g id="edge6" class="edge">
<title>f&#45;&gt;g</title>
<path fill="none" stroke="#64748b" d="M73.5,-100.66C73.5,-84.25 73.5,-61.54 73.5,-44.23"/>
<polygon fill="#64748b" stroke="#64748b" points="76.3,-44.22 73.5,-36.22 70.7,-44.22 76.3,-44.22"/>
</g>
</g>
</svg>
