<?xml version="1.0" encoding="UTF-8" standalone="no"?>
<!DOCTYPE svg PUBLIC "-//W3C//DTD SVG 1.1//EN"
 "http://www.w3.org/Graphics/SVG/1.1/DTD/svg11.dtd">
<!-- Generated by graphviz version 2.42.4 (0)
 -->
<!-- Title: G Pages: 1 -->
<svg width="984pt" height="136pt"
 viewBox="0.00 0.00 984.00 136.00" xmlns="http://www.w3.org/2000/svg" xmlns:xlink="http://www.w3.org/1999/xlink">
<g id="graph0" class="graph" transform="scale(1 1) rotate(0) translate(18 118)">
<title>G</title>
<polygon fill="white" stroke="transparent" points="-18,18 -18,-118 966,-118 966,18 -18,18"/>
<text text-anchor="middle" x="474" y="-84.8" font-family="Arial" font-size="14.00">Séquence &#45; Création d&#39;un compte local</text>
<!-- a0 -->
<g id="node1" class="node">
<title>a0</title>
<path fill="#f8fafc" stroke="#cbd5e1" d="M96,-36C96,-36 12,-36 12,-36 6,-36 0,-30 0,-24 0,-24 0,-12 0,-12 0,-6 6,0 12,0 12,0 96,0 96,0 102,0 108,-6 108,-12 108,-12 108,-24 108,-24 108,-30 102,-36 96,-36"/>
<text text-anchor="middle" x="54" y="-15.5" font-family="Arial" font-size="10.00">Utilisateur</text>
</g>
<!-- a1 -->
<g id="node2" class="node">
<title>a1</title>
<path fill="#f8fafc" stroke="#cbd5e1" d="M309,-36C309,-36 225,-36 225,-36 219,-36 213,-30 213,-24 213,-24 213,-12 213,-12 213,-6 219,0 225,0 225,0 309,0 309,0 315,0 321,-6 321,-12 321,-12 321,-24 321,-24 321,-30 315,-36 309,-36"/>
<text text-anchor="middle" x="267" y="-15.5" font-family="Arial" font-size="10.00">UI</text>
</g>
<!-- a0&#45;&gt;a1 -->
<g id="edge1" class="edge">
<title>a0&#45;&gt;a1</title>
<path fill="none" stroke="#475569" d="M108.05,-7.34C114.58,-6.37 121.17,-5.56 127.5,-5 156.72,-2.44 164.28,-2.44 193.5,-5 197.55,-5.36 201.72,-5.82 205.9,-6.36"/>
<polygon fill="#475569" stroke="#475569" points="205.68,-8.8 212.95,-7.34 206.36,-3.95 205.68,-8.8"/>
<text text-anchor="middle" x="160.5" y="-7.8" font-family="Arial" font-size="9.00">ouvre l&#39;assistant</text>
</g>
<!-- a1&#45;&gt;a0 -->
<g id="edge6" class="edge">
<title>a1&#45;&gt;a0</title>
<path fill="none" stroke="#475569" d="M212.66,-18C182.95,-18 146.03,-18 115.29,-18"/>
<polygon fill="#475569" stroke="#475569" points="115.02,-15.55 108.02,-18 115.02,-20.45 115.02,-15.55"/>
<text text-anchor="middle" x="160.5" y="-23.8" font-family="Arial" font-size="9.00">sidebar actualisée</text>
</g>
<!-- a2 -->
<g id="node3" class="node">
<title>a2</title>
<path fill="#f8fafc" stroke="#cbd5e1" d="M540,-36C540,-36 456,-36 456,-36 450,-36 444,-30 444,-24 444,-24 444,-12 444,-12 444,-6 450,0 456,0 456,0 540,0 540,0 546,0 552,-6 552,-12 552,-12 552,-24 552,-24 552,-30 546,-36 540,-36"/>
<text text-anchor="middle" x="498" y="-15.5" font-family="Arial" font-size="10.00">Core</text>
</g>
<!-- a1&#45;&gt;a2 -->
<g id="edge2" class="edge">
<title>a1&#45;&gt;a2</title>
<path fill="none" stroke="#475569" d="M321.06,-7.76C328.9,-6.61 336.89,-5.63 344.5,-5 378.16,-2.2 386.84,-2.2 420.5,-5 425.85,-5.45 431.39,-6.06 436.94,-6.79"/>
<polygon fill="#475569" stroke="#475569" points="436.67,-9.22 443.94,-7.76 437.35,-4.37 436.67,-9.22"/>
<text text-anchor="middle" x="382.5" y="-7.8" font-family="Arial" font-size="9.00">api/account&#45;create</text>
</g>
<!-- a4 -->
<g id="node5" class="node">
<title>a4</title>
<path fill="#f8fafc" stroke="#cbd5e1" d="M936,-36C936,-36 852,-36 852,-36 846,-36 840,-30 840,-24 840,-24 840,-12 840,-12 840,-6 846,0 852,0 852,0 936,0 936,0 942,0 948,-6 948,-12 948,-12 948,-24 948,-24 948,-30 942,-36 936,-36"/>
<text text-anchor="middle" x="894" y="-15.5" font-family="Arial" font-size="10.00">Sync Server</text>
</g>
<!-- a1&#45;&gt;a4 -->
<g id="edge5" class="edge">
<title>a1&#45;&gt;a4</title>
<path fill="none" stroke="#475569" stroke-dasharray="5,2" d="M321.32,-29.24C371.76,-39.08 449.08,-52.6 517,-58 654.25,-68.91 690.78,-61.9 826,-36 828.28,-35.56 830.59,-35.09 832.93,-34.6"/>
<polygon fill="#475569" stroke="#475569" points="833.66,-36.94 839.97,-33.03 832.6,-32.16 833.66,-36.94"/>
<text text-anchor="middle" x="580" y="-56.8" font-family="Arial" font-size="9.00">publie changement (optionnel)</text>
</g>
<!-- a2&#45;&gt;a1 -->
<g id="edge4" class="edge">
<title>a2&#45;&gt;a1</title>
<path fill="none" stroke="#475569" d="M443.78,-18C409.14,-18 364.14,-18 328.22,-18"/>
<polygon fill="#475569" stroke="#475569" points="328.16,-15.55 321.16,-18 328.16,-20.45 328.16,-15.55"/>
<text text-anchor="middle" x="382.5" y="-23.8" font-family="Arial" font-size="9.00">retour identifiant et état</text>
</g>
<!-- a3 -->
<g id="node4" class="node">
<title>a3</title>
<path fill="#f8fafc" stroke="#cbd5e1" d="M799,-36C799,-36 715,-36 715,-36 709,-36 703,-30 703,-24 703,-24 703,-12 703,-12 703,-6 709,0 715,0 715,0 799,0 799,0 805,0 811,-6 811,-12 811,-12 811,-24 811,-24 811,-30 805,-36 799,-36"/>
<text text-anchor="middle" x="757" y="-15.5" font-family="Arial" font-size="10.00">SQLite</text>
</g>
<!-- a2&#45;&gt;a3 -->
<g id="edge3" class="edge">
<title>a2&#45;&gt;a3</title>
<path fill="none" stroke="#475569" d="M552.29,-18C594.17,-18 652.09,-18 695.64,-18"/>
<polygon fill="#475569" stroke="#475569" points="695.78,-20.45 702.78,-18 695.78,-15.55 695.78,-20.45"/>
<text text-anchor="middle" x="627.5" y="-23.8" font-family="Arial" font-size="9.00">création compte + solde initial</text>
</g>
</g>
</svg>
