<?xml version="1.0" encoding="UTF-8" standalone="no"?>
<!DOCTYPE svg PUBLIC "-//W3C//DTD SVG 1.1//EN"
 "http://www.w3.org/Graphics/SVG/1.1/DTD/svg11.dtd">
<!-- Generated by graphviz version 2.42.4 (0)
 -->
<!-- Title: G Pages: 1 -->
<svg width="1173pt" height="136pt"
 viewBox="0.00 0.00 1173.00 136.00" xmlns="http://www.w3.org/2000/svg" xmlns:xlink="http://www.w3.org/1999/xlink">
<g id="graph0" class="graph" transform="scale(1 1) rotate(0) translate(18 118)">
<title>G</title>
<polygon fill="white" stroke="transparent" points="-18,18 -18,-118 1155,-118 1155,18 -18,18"/>
<text text-anchor="middle" x="568.5" y="-84.8" font-family="Arial" font-size="14.00">Séquence &#45; Ajout manuel d&#39;une transaction</text>
<!-- a0 -->
<g id="node1" class="node">
<title>a0</title>
<path fill="#f8fafc" stroke="#cbd5e1" d="M96,-36C96,-36 12,-36 12,-36 6,-36 0,-30 0,-24 0,-24 0,-12 0,-12 0,-6 6,0 12,0 12,0 96,0 96,0 102,0 108,-6 108,-12 108,-12 108,-24 108,-24 108,-30 102,-36 96,-36"/>
<text text-anchor="middle" x="54" y="-15.5" font-family="Arial" font-size="10.00">Utilisateur</text>
</g>
<!-- a1 -->
<g id="node2" class="node">
<title>a1</title>
<path fill="#f8fafc" stroke="#cbd5e1" d="M392,-36C392,-36 308,-36 308,-36 302,-36 296,-30 296,-24 296,-24 296,-12 296,-12 296,-6 302,0 308,0 308,0 392,0 392,0 398,0 404,-6 404,-12 404,-12 404,-24 404,-24 404,-30 398,-36 392,-36"/>
<text text-anchor="middle" x="350" y="-15.5" font-family="Arial" font-size="10.00">UI</text>
</g>
<!-- a0&#45;&gt;a1 -->
<g id="edge1" class="edge">
<title>a0&#45;&gt;a1</title>
<path fill="none" stroke="#475569" d="M108.29,-18C159.32,-18 235.61,-18 288.79,-18"/>
<polygon fill="#475569" stroke="#475569" points="288.8,-20.45 295.8,-18 288.8,-15.55 288.8,-20.45"/>
<text text-anchor="middle" x="202" y="-23.8" font-family="Arial" font-size="9.00">saisit date / montant / payee / catégorie</text>
</g>
<!-- a2 -->
<g id="node3" class="node">
<title>a2</title>
<path fill="#f8fafc" stroke="#cbd5e1" d="M1125,-36C1125,-36 1041,-36 1041,-36 1035,-36 1029,-30 1029,-24 1029,-24 1029,-12 1029,-12 1029,-6 1035,0 1041,0 1041,0 1125,0 1125,0 1131,0 1137,-6 1137,-12 1137,-12 1137,-24 1137,-24 1137,-30 1131,-36 1125,-36"/>
<text text-anchor="middle" x="1083" y="-15.5" font-family="Arial" font-size="10.00">Rules</text>
</g>
<!-- a1&#45;&gt;a2 -->
<g id="edge2" class="edge">
<title>a1&#45;&gt;a2</title>
<path fill="none" stroke="#475569" stroke-dasharray="5,2" d="M404.01,-23.9C439.5,-27.66 486.98,-32.47 529,-36 628.99,-44.39 881.37,-76.48 980,-58 1000.32,-54.19 1021.78,-46.5 1039.83,-38.87"/>
<polygon fill="#475569" stroke="#475569" points="1040.86,-41.1 1046.31,-36.07 1038.92,-36.6 1040.86,-41.1"/>
<text text-anchor="middle" x="918" y="-56.8" font-family="Arial" font-size="9.00">autocomplete + apprentissage</text>
</g>
<!-- a3 -->
<g id="node4" class="node">
<title>a3</title>
<path fill="#f8fafc" stroke="#cbd5e1" d="M639,-36C639,-36 555,-36 555,-36 549,-36 543,-30 543,-24 543,-24 543,-12 543,-12 543,-6 549,0 555,0 555,0 639,0 639,0 645,0 651,-6 651,-12 651,-12 651,-24 651,-24 651,-30 645,-36 639,-36"/>
<text text-anchor="middle" x="597" y="-15.5" font-family="Arial" font-size="10.00">Core</text>
</g>
<!-- a1&#45;&gt;a3 -->
<g id="edge3" class="edge">
<title>a1&#45;&gt;a3</title>
<path fill="none" stroke="#475569" d="M404.05,-7.34C410.58,-6.37 417.17,-5.56 423.5,-5 467.77,-1.11 479.23,-1.11 523.5,-5 527.55,-5.36 531.72,-5.82 535.9,-6.36"/>
<polygon fill="#475569" stroke="#475569" points="535.68,-8.8 542.95,-7.34 536.36,-3.95 535.68,-8.8"/>
<text text-anchor="middle" x="473.5" y="-7.8" font-family="Arial" font-size="9.00">transaction&#45;add / update</text>
</g>
<!-- a3&#45;&gt;a1 -->
<g id="edge6" class="edge">
<title>a3&#45;&gt;a1</title>
<path fill="none" stroke="#475569" d="M542.92,-18C504.1,-18 451.73,-18 411.34,-18"/>
<polygon fill="#475569" stroke="#475569" points="411.21,-15.55 404.21,-18 411.21,-20.45 411.21,-15.55"/>
<text text-anchor="middle" x="473.5" y="-23.8" font-family="Arial" font-size="9.00">registre et totaux mis à jour</text>
</g>
<!-- a4 -->
<g id="node5" class="node">
<title>a4</title>
<path fill="#f8fafc" stroke="#cbd5e1" d="M851,-36C851,-36 767,-36 767,-36 761,-36 755,-30 755,-24 755,-24 755,-12 755,-12 755,-6 761,0 767,0 767,0 851,0 851,0 857,0 863,-6 863,-12 863,-12 863,-24 863,-24 863,-30 857,-36 851,-36"/>
<text text-anchor="middle" x="809" y="-15.5" font-family="Arial" font-size="10.00">SQLite</text>
</g>
<!-- a3&#45;&gt;a4 -->
<g id="edge4" class="edge">
<title>a3&#45;&gt;a4</title>
<path fill="none" stroke="#475569" d="M651.05,-18C680.46,-18 716.97,-18 747.47,-18"/>
<polygon fill="#475569" stroke="#475569" points="747.69,-20.45 754.69,-18 747.69,-15.55 747.69,-20.45"/>
<text text-anchor="middle" x="703" y="-23.8" font-family="Arial" font-size="9.00">persist transaction</text>
</g>
<!-- a5 -->
<g id="node6" class="node">
<title>a5</title>
<path fill="#f8fafc" stroke="#cbd5e1" d="M988,-36C988,-36 904,-36 904,-36 898,-36 892,-30 892,-24 892,-24 892,-12 892,-12 892,-6 898,0 904,0 904,0 988,0 988,0 994,0 1000,-6 1000,-12 1000,-12 1000,-24 1000,-24 1000,-30 994,-36 988,-36"/>
<text text-anchor="middle" x="946" y="-15.5" font-family="Arial" font-size="10.00">Budget</text>
</g>
<!-- a3&#45;&gt;a5 -->
<g id="edge5" class="edge">
<title>a3&#45;&gt;a5</title>
<path fill="none" stroke="#475569" d="M637.43,-36.08C658.58,-44.57 685.18,-53.74 710,-58 736.72,-62.59 805.27,-62.55 832,-58 854.48,-54.17 878.42,-46.38 898.54,-38.68"/>
<polygon fill="#475569" stroke="#475569" points="899.57,-40.91 905.2,-36.08 897.79,-36.35 899.57,-40.91"/>
<text text-anchor="middle" x="771" y="-56.8" font-family="Arial" font-size="9.00">recalcule soldes / enveloppes</text>
</g>
</g>
</svg>
