<?xml version="1.0" encoding="UTF-8" standalone="no"?>
<!DOCTYPE svg PUBLIC "-//W3C//DTD SVG 1.1//EN"
 "http://www.w3.org/Graphics/SVG/1.1/DTD/svg11.dtd">
<!-- Generated by graphviz version 2.42.4 (0)
 -->
<!-- Title: G Pages: 1 -->
<svg width="1800pt" height="136pt"
 viewBox="0.00 0.00 1800.00 136.00" xmlns="http://www.w3.org/2000/svg" xmlns:xlink="http://www.w3.org/1999/xlink">
<g id="graph0" class="graph" transform="scale(1 1) rotate(0) translate(18 118)">
<title>G</title>
<polygon fill="white" stroke="transparent" points="-18,18 -18,-118 1782,-118 1782,18 -18,18"/>
<text text-anchor="middle" x="882" y="-84.8" font-family="Arial" font-size="14.00">Séquence &#45; Import de transactions et application des règles</text>
<!-- a0 -->
<g id="node1" class="node">
<title>a0</title>
<path fill="#f8fafc" stroke="#cbd5e1" d="M96,-36C96,-36 12,-36 12,-36 6,-36 0,-30 0,-24 0,-24 0,-12 0,-12 0,-6 6,0 12,0 12,0 96,0 96,0 102,0 108,-6 108,-12 108,-12 108,-24 108,-24 108,-30 102,-36 96,-36"/>
<text text-anchor="middle" x="54" y="-15.5" font-family="Arial" font-size="10.00">Utilisateur</text>
</g>
<!-- a1 -->
<g id="node2" class="node">
<title>a1</title>
<path fill="#f8fafc" stroke="#cbd5e1" d="M372,-36C372,-36 288,-36 288,-36 282,-36 276,-30 276,-24 276,-24 276,-12 276,-12 276,-6 282,0 288,0 288,0 372,0 372,0 378,0 384,-6 384,-12 384,-12 384,-24 384,-24 384,-30 378,-36 372,-36"/>
<text text-anchor="middle" x="330" y="-15.5" font-family="Arial" font-size="10.00">UI</text>
</g>
<!-- a0&#45;&gt;a1 -->
<g id="edge1" class="edge">
<title>a0&#45;&gt;a1</title>
<path fill="none" stroke="#475569" d="M108.2,-18C154.34,-18 220.6,-18 268.67,-18"/>
<polygon fill="#475569" stroke="#475569" points="268.92,-20.45 275.92,-18 268.92,-15.55 268.92,-20.45"/>
<text text-anchor="middle" x="192" y="-23.8" font-family="Arial" font-size="9.00">importe fichier ou lance bank sync</text>
</g>
<!-- a2 -->
<g id="node3" class="node">
<title>a2</title>
<path fill="#f8fafc" stroke="#cbd5e1" d="M663,-36C663,-36 579,-36 579,-36 573,-36 567,-30 567,-24 567,-24 567,-12 567,-12 567,-6 573,0 579,0 579,0 663,0 663,0 669,0 675,-6 675,-12 675,-12 675,-24 675,-24 675,-30 669,-36 663,-36"/>
<text text-anchor="middle" x="621" y="-15.5" font-family="Arial" font-size="10.00">Importer</text>
</g>
<!-- a1&#45;&gt;a2 -->
<g id="edge2" class="edge">
<title>a1&#45;&gt;a2</title>
<path fill="none" stroke="#475569" d="M384.05,-18C433.82,-18 507.58,-18 559.56,-18"/>
<polygon fill="#475569" stroke="#475569" points="559.74,-20.45 566.74,-18 559.74,-15.55 559.74,-20.45"/>
<text text-anchor="middle" x="475.5" y="-23.8" font-family="Arial" font-size="9.00">transactions&#45;parse&#45;file / fetch provider</text>
</g>
<!-- a3 -->
<g id="node4" class="node">
<title>a3</title>
<path fill="#f8fafc" stroke="#cbd5e1" d="M909,-36C909,-36 825,-36 825,-36 819,-36 813,-30 813,-24 813,-24 813,-12 813,-12 813,-6 819,0 825,0 825,0 909,0 909,0 915,0 921,-6 921,-12 921,-12 921,-24 921,-24 921,-30 915,-36 909,-36"/>
<text text-anchor="middle" x="867" y="-15.5" font-family="Arial" font-size="10.00">Rules</text>
</g>
<!-- a2&#45;&gt;a3 -->
<g id="edge3" class="edge">
<title>a2&#45;&gt;a3</title>
<path fill="none" stroke="#475569" d="M675.29,-18C713.79,-18 765.5,-18 805.52,-18"/>
<polygon fill="#475569" stroke="#475569" points="805.85,-20.45 812.85,-18 805.85,-15.55 805.85,-20.45"/>
<text text-anchor="middle" x="744" y="-23.8" font-family="Arial" font-size="9.00">évalue conditions / actions</text>
</g>
<!-- a4 -->
<g id="node5" class="node">
<title>a4</title>
<path fill="#f8fafc" stroke="#cbd5e1" d="M1752,-36C1752,-36 1668,-36 1668,-36 1662,-36 1656,-30 1656,-24 1656,-24 1656,-12 1656,-12 1656,-6 1662,0 1668,0 1668,0 1752,0 1752,0 1758,0 1764,-6 1764,-12 1764,-12 1764,-24 1764,-24 1764,-30 1758,-36 1752,-36"/>
<text text-anchor="middle" x="1710" y="-15.5" font-family="Arial" font-size="10.00">Payees</text>
</g>
<!-- a3&#45;&gt;a4 -->
<g id="edge4" class="edge">
<title>a3&#45;&gt;a4</title>
<path fill="none" stroke="#475569" d="M895.97,-36.04C911.27,-44.52 930.73,-53.69 949.5,-58 988.27,-66.9 1088.73,-58.85 1128.5,-58 1356.88,-53.11 1416.16,-70.32 1642,-36 1644.23,-35.66 1646.5,-35.28 1648.78,-34.86"/>
<polygon fill="#475569" stroke="#475569" points="1649.27,-37.26 1655.66,-33.49 1648.32,-32.45 1649.27,-37.26"/>
<text text-anchor="middle" x="1039" y="-56.8" font-family="Arial" font-size="9.00">match exact / contains / catégorie par défaut</text>
</g>
<!-- a5 -->
<g id="node6" class="node">
<title>a5</title>
<path fill="#f8fafc" stroke="#cbd5e1" d="M1371,-36C1371,-36 1287,-36 1287,-36 1281,-36 1275,-30 1275,-24 1275,-24 1275,-12 1275,-12 1275,-6 1281,0 1287,0 1287,0 1371,0 1371,0 1377,0 1383,-6 1383,-12 1383,-12 1383,-24 1383,-24 1383,-30 1377,-36 1371,-36"/>
<text text-anchor="middle" x="1329" y="-15.5" font-family="Arial" font-size="10.00">Core</text>
</g>
<!-- a3&#45;&gt;a5 -->
<g id="edge5" class="edge">
<title>a3&#45;&gt;a5</title>
<path fill="none" stroke="#475569" d="M921.36,-18C1007.98,-18 1176.81,-18 1267.65,-18"/>
<polygon fill="#475569" stroke="#475569" points="1267.85,-20.45 1274.85,-18 1267.85,-15.55 1267.85,-20.45"/>
<text text-anchor="middle" x="1098" y="-23.8" font-family="Arial" font-size="9.00">construit transactions normalisées</text>
</g>
<!-- a5&#45;&gt;a1 -->
<g id="edge7" class="edge">
<title>a5&#45;&gt;a1</title>
<path fill="none" stroke="#475569" d="M1299.84,-36.04C1284.44,-44.52 1264.87,-53.69 1246,-58 1197.47,-69.08 1183.77,-58.94 1134,-58 875.64,-53.11 810.95,-51.29 553,-36 498.16,-32.75 435.85,-27.6 391.06,-23.64"/>
<polygon fill="#475569" stroke="#475569" points="391.22,-21.19 384.03,-23.01 390.78,-26.07 391.22,-21.19"/>
<text text-anchor="middle" x="1190" y="-56.8" font-family="Arial" font-size="9.00">prévisualisation / validation</text>
</g>
<!-- a6 -->
<g id="node7" class="node">
<title>a6</title>
<path fill="#f8fafc" stroke="#cbd5e1" d="M1615,-36C1615,-36 1531,-36 1531,-36 1525,-36 1519,-30 1519,-24 1519,-24 1519,-12 1519,-12 1519,-6 1525,0 1531,0 1531,0 1615,0 1615,0 1621,0 1627,-6 1627,-12 1627,-12 1627,-24 1627,-24 1627,-30 1621,-36 1615,-36"/>
<text text-anchor="middle" x="1573" y="-15.5" font-family="Arial" font-size="10.00">SQLite</text>
</g>
<!-- a5&#45;&gt;a6 -->
<g id="edge6" class="edge">
<title>a5&#45;&gt;a6</title>
<path fill="none" stroke="#475569" d="M1383.15,-18C1421.22,-18 1472.2,-18 1511.75,-18"/>
<polygon fill="#475569" stroke="#475569" points="1512,-20.45 1519,-18 1512,-15.55 1512,-20.45"/>
<text text-anchor="middle" x="1451" y="-23.8" font-family="Arial" font-size="9.00">transactions&#45;batch&#45;update</text>
</g>
</g>
</svg>
