<?xml version="1.0" encoding="UTF-8" standalone="no"?>
<!DOCTYPE svg PUBLIC "-//W3C//DTD SVG 1.1//EN"
 "http://www.w3.org/Graphics/SVG/1.1/DTD/svg11.dtd">
<!-- Generated by graphviz version 2.42.4 (0)
 -->
<!-- Title: G Pages: 1 -->
<svg width="1080pt" height="136pt"
 viewBox="0.00 0.00 1080.00 136.00" xmlns="http://www.w3.org/2000/svg" xmlns:xlink="http://www.w3.org/1999/xlink">
<g id="graph0" class="graph" transform="scale(1 1) rotate(0) translate(18 118)">
<title>G</title>
<polygon fill="white" stroke="transparent" points="-18,18 -18,-118 1062,-118 1062,18 -18,18"/>
<text text-anchor="middle" x="522" y="-84.8" font-family="Arial" font-size="14.00">Séquence &#45; Création d&#39;un transfert</text>
<!-- a0 -->
<g id="node1" class="node">
<title>a0</title>
<path fill="#f8fafc" stroke="#cbd5e1" d="M96,-36C96,-36 12,-36 12,-36 6,-36 0,-30 0,-24 0,-24 0,-12 0,-12 0,-6 6,0 12,0 12,0 96,0 96,0 102,0 108,-6 108,-12 108,-12 108,-24 108,-24 108,-30 102,-36 96,-36"/>
<text text-anchor="middle" x="54" y="-15.5" font-family="Arial" font-size="10.00">Utilisateur</text>
</g>
<!-- a1 -->
<g id="node2" class="node">
<title>a1</title>
<path fill="#f8fafc" stroke="#cbd5e1" d="M384,-36C384,-36 300,-36 300,-36 294,-36 288,-30 288,-24 288,-24 288,-12 288,-12 288,-6 294,0 300,0 300,0 384,0 384,0 390,0 396,-6 396,-12 396,-12 396,-24 396,-24 396,-30 390,-36 384,-36"/>
<text text-anchor="middle" x="342" y="-15.5" font-family="Arial" font-size="10.00">UI</text>
</g>
<!-- a0&#45;&gt;a1 -->
<g id="edge1" class="edge">
<title>a0&#45;&gt;a1</title>
<path fill="none" stroke="#475569" d="M108.17,-18C157.19,-18 229.34,-18 280.51,-18"/>
<polygon fill="#475569" stroke="#475569" points="280.58,-20.45 287.58,-18 280.58,-15.55 280.58,-20.45"/>
<text text-anchor="middle" x="198" y="-23.8" font-family="Arial" font-size="9.00">choisit le compte cible dans le payee</text>
</g>
<!-- a2 -->
<g id="node3" class="node">
<title>a2</title>
<path fill="#f8fafc" stroke="#cbd5e1" d="M1032,-36C1032,-36 948,-36 948,-36 942,-36 936,-30 936,-24 936,-24 936,-12 936,-12 936,-6 942,0 948,0 948,0 1032,0 1032,0 1038,0 1044,-6 1044,-12 1044,-12 1044,-24 1044,-24 1044,-30 1038,-36 1032,-36"/>
<text text-anchor="middle" x="990" y="-15.5" font-family="Arial" font-size="10.00">Payees de transfert</text>
</g>
<!-- a1&#45;&gt;a2 -->
<g id="edge2" class="edge">
<title>a1&#45;&gt;a2</title>
<path fill="none" stroke="#475569" d="M396.05,-28.17C451.61,-38.06 540.73,-52.4 618.5,-58 753.39,-67.71 788.99,-60.47 922,-36 924.28,-35.58 926.6,-35.12 928.94,-34.64"/>
<polygon fill="#475569" stroke="#475569" points="929.66,-36.99 935.98,-33.1 928.62,-32.2 929.66,-36.99"/>
<text text-anchor="middle" x="666" y="-56.8" font-family="Arial" font-size="9.00">résout le payee spécial</text>
</g>
<!-- a3 -->
<g id="node4" class="node">
<title>a3</title>
<path fill="#f8fafc" stroke="#cbd5e1" d="M607,-36C607,-36 523,-36 523,-36 517,-36 511,-30 511,-24 511,-24 511,-12 511,-12 511,-6 517,0 523,0 523,0 607,0 607,0 613,0 619,-6 619,-12 619,-12 619,-24 619,-24 619,-30 613,-36 607,-36"/>
<text text-anchor="middle" x="565" y="-15.5" font-family="Arial" font-size="10.00">Core</text>
</g>
<!-- a1&#45;&gt;a3 -->
<g id="edge3" class="edge">
<title>a1&#45;&gt;a3</title>
<path fill="none" stroke="#475569" d="M396.17,-7.94C404.62,-6.72 413.28,-5.67 421.5,-5 449.85,-2.7 457.15,-2.7 485.5,-5 491.41,-5.48 497.55,-6.16 503.67,-6.95"/>
<polygon fill="#475569" stroke="#475569" points="503.56,-9.41 510.83,-7.94 504.23,-4.56 503.56,-9.41"/>
<text text-anchor="middle" x="453.5" y="-7.8" font-family="Arial" font-size="9.00">transaction&#45;add</text>
</g>
<!-- a3&#45;&gt;a1 -->
<g id="edge5" class="edge">
<title>a3&#45;&gt;a1</title>
<path fill="none" stroke="#475569" d="M510.88,-18C478.41,-18 437.01,-18 403.33,-18"/>
<polygon fill="#475569" stroke="#475569" points="403.27,-15.55 396.27,-18 403.27,-20.45 403.27,-15.55"/>
<text text-anchor="middle" x="453.5" y="-23.8" font-family="Arial" font-size="9.00">2 registres cohérents</text>
</g>
<!-- a4 -->
<g id="node5" class="node">
<title>a4</title>
<path fill="#f8fafc" stroke="#cbd5e1" d="M895,-36C895,-36 811,-36 811,-36 805,-36 799,-30 799,-24 799,-24 799,-12 799,-12 799,-6 805,0 811,0 811,0 895,0 895,0 901,0 907,-6 907,-12 907,-12 907,-24 907,-24 907,-30 901,-36 895,-36"/>
<text text-anchor="middle" x="853" y="-15.5" font-family="Arial" font-size="10.00">SQLite</text>
</g>
<!-- a3&#45;&gt;a4 -->
<g id="edge4" class="edge">
<title>a3&#45;&gt;a4</title>
<path fill="none" stroke="#475569" d="M619.17,-18C668.19,-18 740.34,-18 791.51,-18"/>
<polygon fill="#475569" stroke="#475569" points="791.58,-20.45 798.58,-18 791.58,-15.55 791.58,-20.45"/>
<text text-anchor="middle" x="709" y="-23.8" font-family="Arial" font-size="9.00">crée transaction source + miroir cible</text>
</g>
</g>
</svg>
