<?xml version="1.0" encoding="UTF-8" standalone="no"?>
<!DOCTYPE svg PUBLIC "-//W3C//DTD SVG 1.1//EN"
 "http://www.w3.org/Graphics/SVG/1.1/DTD/svg11.dtd">
<!-- Generated by graphviz version 2.42.4 (0)
 -->
<!-- Title: G Pages: 1 -->
<svg width="1022pt" height="95pt"
 viewBox="0.00 0.00 1022.00 95.37" xmlns="http://www.w3.org/2000/svg" xmlns:xlink="http://www.w3.org/1999/xlink">
<g id="graph0" class="graph" transform="scale(1 1) rotate(0) translate(18 77.37)">
<title>G</title>
<polygon fill="white" stroke="transparent" points="-18,18 -18,-77.37 1004,-77.37 1004,18 -18,18"/>
<text text-anchor="middle" x="493" y="-44.17" font-family="Arial" font-size="14.00">Séquence &#45; Rapprochement bancaire</text>
<!-- a0 -->
<g id="node1" class="node">
<title>a0</title>
<path fill="#f8fafc" stroke="#cbd5e1" d="M96,-36C96,-36 12,-36 12,-36 6,-36 0,-30 0,-24 0,-24 0,-12 0,-12 0,-6 6,0 12,0 12,0 96,0 96,0 102,0 108,-6 108,-12 108,-12 108,-24 108,-24 108,-30 102,-36 96,-36"/>
<text text-anchor="middle" x="54" y="-15.5" font-family="Arial" font-size="10.00">Utilisateur</text>
</g>
<!-- a1 -->
<g id="node2" class="node">
<title>a1</title>
<path fill="#f8fafc" stroke="#cbd5e1" d="M390,-36C390,-36 306,-36 306,-36 300,-36 294,-30 294,-24 294,-24 294,-12 294,-12 294,-6 300,0 306,0 306,0 390,0 390,0 396,0 402,-6 402,-12 402,-12 402,-24 402,-24 402,-30 396,-36 390,-36"/>
<text text-anchor="middle" x="348" y="-15.5" font-family="Arial" font-size="10.00">UI</text>
</g>
<!-- a0&#45;&gt;a1 -->
<g id="edge1" class="edge">
<title>a0&#45;&gt;a1</title>
<path fill="none" stroke="#475569" d="M108.27,-18C158.66,-18 233.62,-18 286.28,-18"/>
<polygon fill="#475569" stroke="#475569" points="286.55,-20.45 293.55,-18 286.55,-15.55 286.55,-20.45"/>
<text text-anchor="middle" x="201" y="-23.8" font-family="Arial" font-size="9.00">ouvre Reconcile et saisit balance cible</text>
</g>
<!-- a0&#45;&gt;a1 -->
<g id="edge5" class="edge">
<title>a0&#45;&gt;a1</title>
<path fill="none" stroke="#475569" d="M108.41,-8.38C118.38,-6.97 128.73,-5.75 138.5,-5 193.89,-0.76 208.11,-0.76 263.5,-5 270.98,-5.57 278.8,-6.42 286.53,-7.42"/>
<polygon fill="#475569" stroke="#475569" points="286.33,-9.87 293.59,-8.38 286.99,-5.01 286.33,-9.87"/>
<text text-anchor="middle" x="201" y="-7.8" font-family="Arial" font-size="9.00">marque les opérations cleared</text>
</g>
<!-- a2 -->
<g id="node3" class="node">
<title>a2</title>
<path fill="#f8fafc" stroke="#cbd5e1" d="M699,-36C699,-36 615,-36 615,-36 609,-36 603,-30 603,-24 603,-24 603,-12 603,-12 603,-6 609,0 615,0 615,0 699,0 699,0 705,0 711,-6 711,-12 711,-12 711,-24 711,-24 711,-30 705,-36 699,-36"/>
<text text-anchor="middle" x="657" y="-15.5" font-family="Arial" font-size="10.00">Core</text>
</g>
<!-- a1&#45;&gt;a2 -->
<g id="edge2" class="edge">
<title>a1&#45;&gt;a2</title>
<path fill="none" stroke="#475569" d="M402.06,-9.57C416.47,-7.68 432.04,-5.95 446.5,-5 496.17,-1.74 508.83,-1.74 558.5,-5 570.59,-5.79 583.45,-7.13 595.76,-8.65"/>
<polygon fill="#475569" stroke="#475569" points="595.68,-11.11 602.94,-9.57 596.3,-6.25 595.68,-11.11"/>
<text text-anchor="middle" x="502.5" y="-7.8" font-family="Arial" font-size="9.00">lit cleared / uncleared totals</text>
</g>
<!-- a1&#45;&gt;a2 -->
<g id="edge6" class="edge">
<title>a1&#45;&gt;a2</title>
<path fill="none" stroke="#475569" d="M402.18,-18C456.29,-18 539.33,-18 595.79,-18"/>
<polygon fill="#475569" stroke="#475569" points="595.88,-20.45 602.88,-18 595.88,-15.55 595.88,-20.45"/>
<text text-anchor="middle" x="502.5" y="-23.8" font-family="Arial" font-size="9.00">transaction&#45;update + état de réconciliation</text>
</g>
<!-- a2&#45;&gt;a1 -->
<g id="edge4" class="edge">
<title>a2&#45;&gt;a1</title>
<path fill="none" stroke="#475569" d="M602.92,-29.23C598.06,-29.95 593.2,-30.56 588.5,-31 512.39,-38.16 492.61,-38.16 416.5,-31 414.15,-30.78 411.76,-30.52 409.35,-30.22"/>
<polygon fill="#475569" stroke="#475569" points="409.35,-27.75 402.08,-29.23 408.69,-32.6 409.35,-27.75"/>
<text text-anchor="middle" x="502.5" y="-39.8" font-family="Arial" font-size="9.00">affiche la différence</text>
</g>
<!-- a3 -->
<g id="node4" class="node">
<title>a3</title>
<path fill="#f8fafc" stroke="#cbd5e1" d="M974,-36C974,-36 890,-36 890,-36 884,-36 878,-30 878,-24 878,-24 878,-12 878,-12 878,-6 884,0 890,0 890,0 974,0 974,0 980,0 986,-6 986,-12 986,-12 986,-24 986,-24 986,-30 980,-36 974,-36"/>
<text text-anchor="middle" x="932" y="-15.5" font-family="Arial" font-size="10.00">SQLite</text>
</g>
<!-- a2&#45;&gt;a3 -->
<g id="edge3" class="edge">
<title>a2&#45;&gt;a3</title>
<path fill="none" stroke="#475569" d="M711.19,-10.28C728.79,-8.12 748.44,-6.07 766.5,-5 791.35,-3.53 797.65,-3.53 822.5,-5 838.16,-5.93 855.02,-7.59 870.7,-9.43"/>
<polygon fill="#475569" stroke="#475569" points="870.57,-11.88 877.81,-10.28 871.15,-7.02 870.57,-11.88"/>
<text text-anchor="middle" x="794.5" y="-7.8" font-family="Arial" font-size="9.00">calcule l&#39;écart</text>
</g>
<!-- a2&#45;&gt;a3 -->
<g id="edge7" class="edge">
<title>a2&#45;&gt;a3</title>
<path fill="none" stroke="#475569" d="M711,-18C756.83,-18 822.57,-18 870.43,-18"/>
<polygon fill="#475569" stroke="#475569" points="870.65,-20.45 877.65,-18 870.65,-15.55 870.65,-20.45"/>
<text text-anchor="middle" x="794.5" y="-23.8" font-family="Arial" font-size="9.00">enregistre dernier rapprochement</text>
</g>
</g>
</svg>
