<?xml version="1.0" encoding="UTF-8" standalone="no"?>
<!DOCTYPE svg PUBLIC "-//W3C//DTD SVG 1.1//EN"
 "http://www.w3.org/Graphics/SVG/1.1/DTD/svg11.dtd">
<!-- Generated by graphviz version 2.42.4 (0)
 -->
<!-- Title: G Pages: 1 -->
<svg width="1206pt" height="136pt"
 viewBox="0.00 0.00 1206.00 136.00" xmlns="http://www.w3.org/2000/svg" xmlns:xlink="http://www.w3.org/1999/xlink">
<g id="graph0" class="graph" transform="scale(1 1) rotate(0) translate(18 118)">
<title>G</title>
<polygon fill="white" stroke="transparent" points="-18,18 -18,-118 1188,-118 1188,18 -18,18"/>
<text text-anchor="middle" x="585" y="-84.8" font-family="Arial" font-size="14.00">Séquence &#45; Scheduled transaction</text>
<!-- a0 -->
<g id="node1" class="node">
<title>a0</title>
<path fill="#f8fafc" stroke="#cbd5e1" d="M96,-36C96,-36 12,-36 12,-36 6,-36 0,-30 0,-24 0,-24 0,-12 0,-12 0,-6 6,0 12,0 12,0 96,0 96,0 102,0 108,-6 108,-12 108,-12 108,-24 108,-24 108,-30 102,-36 96,-36"/>
<text text-anchor="middle" x="54" y="-15.5" font-family="Arial" font-size="10.00">Utilisateur</text>
</g>
<!-- a1 -->
<g id="node2" class="node">
<title>a1</title>
<path fill="#f8fafc" stroke="#cbd5e1" d="M337,-36C337,-36 253,-36 253,-36 247,-36 241,-30 241,-24 241,-24 241,-12 241,-12 241,-6 247,0 253,0 253,0 337,0 337,0 343,0 349,-6 349,-12 349,-12 349,-24 349,-24 349,-30 343,-36 337,-36"/>
<text text-anchor="middle" x="295" y="-15.5" font-family="Arial" font-size="10.00">UI</text>
</g>
<!-- a0&#45;&gt;a1 -->
<g id="edge1" class="edge">
<title>a0&#45;&gt;a1</title>
<path fill="none" stroke="#475569" d="M108.09,-18C145.32,-18 194.86,-18 233.58,-18"/>
<polygon fill="#475569" stroke="#475569" points="233.68,-20.45 240.68,-18 233.68,-15.55 233.68,-20.45"/>
<text text-anchor="middle" x="174.5" y="-23.8" font-family="Arial" font-size="9.00">crée ou relie un schedule</text>
</g>
<!-- a0&#45;&gt;a1 -->
<g id="edge5" class="edge">
<title>a0&#45;&gt;a1</title>
<path fill="none" stroke="#475569" d="M108.19,-9.37C121.81,-7.55 136.41,-5.92 150,-5 171.73,-3.54 177.27,-3.54 199,-5 210.26,-5.76 222.2,-7.01 233.71,-8.45"/>
<polygon fill="#475569" stroke="#475569" points="233.55,-10.9 240.81,-9.37 234.18,-6.04 233.55,-10.9"/>
<text text-anchor="middle" x="174.5" y="-7.8" font-family="Arial" font-size="9.00">post ou skip</text>
</g>
<!-- a2 -->
<g id="node3" class="node">
<title>a2</title>
<path fill="#f8fafc" stroke="#cbd5e1" d="M781,-36C781,-36 697,-36 697,-36 691,-36 685,-30 685,-24 685,-24 685,-12 685,-12 685,-6 691,0 697,0 697,0 781,0 781,0 787,0 793,-6 793,-12 793,-12 793,-24 793,-24 793,-30 787,-36 781,-36"/>
<text text-anchor="middle" x="739" y="-15.5" font-family="Arial" font-size="10.00">Schedule Engine</text>
</g>
<!-- a1&#45;&gt;a2 -->
<g id="edge2" class="edge">
<title>a1&#45;&gt;a2</title>
<path fill="none" stroke="#475569" d="M349.08,-32.69C386.27,-42.02 436.99,-53.2 482.5,-58 566.38,-66.85 588.69,-54.44 671,-36 673.26,-35.49 675.57,-34.96 677.89,-34.41"/>
<polygon fill="#475569" stroke="#475569" points="678.67,-36.74 684.9,-32.72 677.52,-31.98 678.67,-36.74"/>
<text text-anchor="middle" x="517" y="-56.8" font-family="Arial" font-size="9.00">schedule/update</text>
</g>
<!-- a3 -->
<g id="node4" class="node">
<title>a3</title>
<path fill="#f8fafc" stroke="#cbd5e1" d="M644,-36C644,-36 560,-36 560,-36 554,-36 548,-30 548,-24 548,-24 548,-12 548,-12 548,-6 554,0 560,0 560,0 644,0 644,0 650,0 656,-6 656,-12 656,-12 656,-24 656,-24 656,-30 650,-36 644,-36"/>
<text text-anchor="middle" x="602" y="-15.5" font-family="Arial" font-size="10.00">Core</text>
</g>
<!-- a1&#45;&gt;a3 -->
<g id="edge6" class="edge">
<title>a1&#45;&gt;a3</title>
<path fill="none" stroke="#475569" d="M349.18,-18C402.83,-18 484.85,-18 540.81,-18"/>
<polygon fill="#475569" stroke="#475569" points="540.85,-20.45 547.85,-18 540.85,-15.55 540.85,-20.45"/>
<text text-anchor="middle" x="448.5" y="-23.8" font-family="Arial" font-size="9.00">schedule/post&#45;transaction / skip&#45;next&#45;date</text>
</g>
<!-- a4 -->
<g id="node5" class="node">
<title>a4</title>
<path fill="#f8fafc" stroke="#cbd5e1" d="M1158,-36C1158,-36 1074,-36 1074,-36 1068,-36 1062,-30 1062,-24 1062,-24 1062,-12 1062,-12 1062,-6 1068,0 1074,0 1074,0 1158,0 1158,0 1164,0 1170,-6 1170,-12 1170,-12 1170,-24 1170,-24 1170,-30 1164,-36 1158,-36"/>
<text text-anchor="middle" x="1116" y="-15.5" font-family="Arial" font-size="10.00">SQLite</text>
</g>
<!-- a2&#45;&gt;a4 -->
<g id="edge3" class="edge">
<title>a2&#45;&gt;a4</title>
<path fill="none" stroke="#475569" d="M781.48,-36.09C803.68,-44.57 831.57,-53.74 857.5,-58 887.98,-63.01 966.01,-62.97 996.5,-58 1020.08,-54.16 1045.28,-46.32 1066.43,-38.59"/>
<polygon fill="#475569" stroke="#475569" points="1067.45,-40.83 1073.15,-36.09 1065.74,-36.23 1067.45,-40.83"/>
<text text-anchor="middle" x="927" y="-56.8" font-family="Arial" font-size="9.00">persist fréquence + règles de post</text>
</g>
<!-- a5 -->
<g id="node6" class="node">
<title>a5</title>
<path fill="#f8fafc" stroke="#cbd5e1" d="M1021,-36C1021,-36 937,-36 937,-36 931,-36 925,-30 925,-24 925,-24 925,-12 925,-12 925,-6 931,0 937,0 937,0 1021,0 1021,0 1027,0 1033,-6 1033,-12 1033,-12 1033,-24 1033,-24 1033,-30 1027,-36 1021,-36"/>
<text text-anchor="middle" x="979" y="-15.5" font-family="Arial" font-size="10.00">Transactions</text>
</g>
<!-- a2&#45;&gt;a5 -->
<g id="edge4" class="edge">
<title>a2&#45;&gt;a5</title>
<path fill="none" stroke="#475569" d="M793.16,-18C830.12,-18 879.16,-18 917.58,-18"/>
<polygon fill="#475569" stroke="#475569" points="917.62,-20.45 924.62,-18 917.62,-15.55 917.62,-20.45"/>
<text text-anchor="middle" x="859" y="-23.8" font-family="Arial" font-size="9.00">prévisualise occurrences</text>
</g>
<!-- a3&#45;&gt;a4 -->
<g id="edge7" class="edge">
<title>a3&#45;&gt;a4</title>
<path fill="none" stroke="#475569" d="M634.37,-36.06C651.4,-44.54 672.97,-53.71 693.5,-58 773.42,-74.71 1036.9,-37.96 1048,-36 1050.28,-35.6 1052.61,-35.15 1054.94,-34.68"/>
<polygon fill="#475569" stroke="#475569" points="1055.66,-37.03 1061.99,-33.17 1054.63,-32.24 1055.66,-37.03"/>
<text text-anchor="middle" x="750" y="-56.8" font-family="Arial" font-size="9.00">crée ou décale l&#39;occurrence</text>
</g>
</g>
</svg>
