<?xml version="1.0" encoding="UTF-8" standalone="no"?>
<!DOCTYPE svg PUBLIC "-//W3C//DTD SVG 1.1//EN"
 "http://www.w3.org/Graphics/SVG/1.1/DTD/svg11.dtd">
<!-- Generated by graphviz version 2.42.4 (0)
 -->
<!-- Title: G Pages: 1 -->
<svg width="908pt" height="136pt"
 viewBox="0.00 0.00 908.00 136.00" xmlns="http://www.w3.org/2000/svg" xmlns:xlink="http://www.w3.org/1999/xlink">
<g id="graph0" class="graph" transform="scale(1 1) rotate(0) translate(18 118)">
<title>G</title>
<polygon fill="white" stroke="transparent" points="-18,18 -18,-118 890,-118 890,18 -18,18"/>
<text text-anchor="middle" x="436" y="-84.8" font-family="Arial" font-size="14.00">Séquence &#45; Synchronisation multi&#45;appareils</text>
<!-- a0 -->
<g id="node1" class="node">
<title>a0</title>
<path fill="#f8fafc" stroke="#cbd5e1" d="M96,-36C96,-36 12,-36 12,-36 6,-36 0,-30 0,-24 0,-24 0,-12 0,-12 0,-6 6,0 12,0 12,0 96,0 96,0 102,0 108,-6 108,-12 108,-12 108,-24 108,-24 108,-30 102,-36 96,-36"/>
<text text-anchor="middle" x="54" y="-15.5" font-family="Arial" font-size="10.00">Device A</text>
</g>
<!-- a1 -->
<g id="node2" class="node">
<title>a1</title>
<path fill="#f8fafc" stroke="#cbd5e1" d="M342,-36C342,-36 258,-36 258,-36 252,-36 246,-30 246,-24 246,-24 246,-12 246,-12 246,-6 252,0 258,0 258,0 342,0 342,0 348,0 354,-6 354,-12 354,-12 354,-24 354,-24 354,-30 348,-36 342,-36"/>
<text text-anchor="middle" x="300" y="-15.5" font-family="Arial" font-size="10.00">Core local</text>
</g>
<!-- a0&#45;&gt;a1 -->
<g id="edge1" class="edge">
<title>a0&#45;&gt;a1</title>
<path fill="none" stroke="#475569" d="M108.29,-18C146.79,-18 198.5,-18 238.52,-18"/>
<polygon fill="#475569" stroke="#475569" points="238.85,-20.45 245.85,-18 238.85,-15.55 238.85,-20.45"/>
<text text-anchor="middle" x="177" y="-23.8" font-family="Arial" font-size="9.00">modifie budget localement</text>
</g>
<!-- a2 -->
<g id="node3" class="node">
<title>a2</title>
<path fill="#f8fafc" stroke="#cbd5e1" d="M605,-36C605,-36 521,-36 521,-36 515,-36 509,-30 509,-24 509,-24 509,-12 509,-12 509,-6 515,0 521,0 521,0 605,0 605,0 611,0 617,-6 617,-12 617,-12 617,-24 617,-24 617,-30 611,-36 605,-36"/>
<text text-anchor="middle" x="563" y="-15.5" font-family="Arial" font-size="10.00">Sync Server</text>
</g>
<!-- a1&#45;&gt;a2 -->
<g id="edge2" class="edge">
<title>a1&#45;&gt;a2</title>
<path fill="none" stroke="#475569" d="M354.17,-18C397.14,-18 457.18,-18 501.86,-18"/>
<polygon fill="#475569" stroke="#475569" points="501.9,-20.45 508.9,-18 501.9,-15.55 501.9,-20.45"/>
<text text-anchor="middle" x="431.5" y="-23.8" font-family="Arial" font-size="9.00">envoie changelog / knowledge</text>
</g>
<!-- a3 -->
<g id="node4" class="node">
<title>a3</title>
<path fill="#f8fafc" stroke="#cbd5e1" d="M860,-36C860,-36 776,-36 776,-36 770,-36 764,-30 764,-24 764,-24 764,-12 764,-12 764,-6 770,0 776,0 776,0 860,0 860,0 866,0 872,-6 872,-12 872,-12 872,-24 872,-24 872,-30 866,-36 860,-36"/>
<text text-anchor="middle" x="818" y="-15.5" font-family="Arial" font-size="10.00">Device B</text>
</g>
<!-- a2&#45;&gt;a3 -->
<g id="edge3" class="edge">
<title>a2&#45;&gt;a3</title>
<path fill="none" stroke="#475569" d="M617.08,-18C657.99,-18 714.19,-18 756.75,-18"/>
<polygon fill="#475569" stroke="#475569" points="757,-20.45 764,-18 757,-15.55 757,-20.45"/>
<text text-anchor="middle" x="690.5" y="-23.8" font-family="Arial" font-size="9.00">publie changements distants</text>
</g>
<!-- a3&#45;&gt;a1 -->
<g id="edge4" class="edge">
<title>a3&#45;&gt;a1</title>
<path fill="none" stroke="#475569" stroke-dasharray="5,2" d="M763.67,-31.39C721.94,-40.95 662.71,-52.98 610,-58 564.87,-62.3 553.13,-62.3 508,-58 458.17,-53.25 402.52,-42.24 361.33,-32.98"/>
<polygon fill="#475569" stroke="#475569" points="361.7,-30.55 354.33,-31.39 360.62,-35.32 361.7,-30.55"/>
<text text-anchor="middle" x="559" y="-56.8" font-family="Arial" font-size="9.00">applique au budget local</text>
</g>
</g>
</svg>
